<svg><defs><font id="CutiveMono" horiz-adv-x="1240"><font-face alphabetic="0" ascent="1697" descent="-558" font-family="Cutive Mono" panose-1="0 0 5 0 0 0 0 0 0 0" units-per-em="2048"/><glyph glyph-name="space"/><glyph d="M590 1187l-17-18-17-66q0-78 5-159t16-192q11-134 16-211t5-161q0-19 6-27t18-9q12 0 18 8t6 28q0 84 5 167t15 206q10 121 15 197t5 153q0 47-17 65t-47 19q-32 0-49-18zM722 136l-29 28-72 29q-43 0-72-28t-30-72q0-43 29-72t73-30q43 0 72 29t29 73q0 43-29 71z" glyph-name="exclam" unicode="!"/><glyph d="M569 1122q0 23-17 36t-41 14q-25 0-42-14t-15-41l32-396q1-10 8-15t17-5q10 0 16 5t8 15l34 395v6zm217 0q0 23-17 36t-41 14q-25 0-42-14t-15-41l32-396q1-10 8-15t17-5q10 0 16 5t8 15l34 395v6z" glyph-name="quotedbl" unicode="&quot;"/><glyph d="M636-123l11 7 15 22 122 479h175q15 0 23 12t8 31q0 17-8 29t-23 13H805l56 219h141q14 0 22 12t8 30q0 17-8 30t-23 13H882l126 496q1 2 1 7 0 14-12 22t-29 9q-14 0-24-6t-14-20L802 774H545l126 496q1 2 1 7 0 14-12 22t-29 9q-14 0-24-6t-14-20L465 774H292q-14 0-22-12t-9-30q0-18 8-30t23-13h151l-55-219H250q-14 0-22-12t-9-30q0-18 8-30t23-13h117L248-86q-1-3-1-8 0-13 11-21t26-8q15 0 26 7t15 22l122 479h257L585-86q-1-3-1-8 0-13 11-21t26-8q15 0 26 7zM524 689h256l-55-219H468l56 219z" glyph-name="numbersign" unicode="#"/><glyph d="M1057 146l-98-79-252-84v-124q0-12-10-19t-23-7q-14 0-24 7t-10 19v127q-79 9-155 40t-122 79q0-58-12-90t-35-32q-26 0-37 16t-11 58v314q0 23 12 35t32 12q19 0 32-13t14-36V250q0-38 39-76t105-66 138-36v489l-73 25q-94 32-153 64t-95 88-37 143q0 97 46 166t124 104 175 36h13v128q0 14 10 21t24 8q13 0 23-8t10-21v-132q145-17 210-88 0 46 12 69t40 23q21 0 30-16t10-54V864q0-26-13-39t-33-14q-18 0-31 12t-14 35v91q-7 61-67 99t-144 49V636l44-15q105-36 170-75t101-97 35-141q0-162-98-241zM640 659v442q-123-2-192-60t-70-155q0-67 24-104t69-58 144-56l25-9zM820 73l70 57 71 174q0 62-26 103t-74 68-130 55l-24 8V69q113 4 183 61z" glyph-name="dollar" unicode="$"/><glyph d="M487 816l-18 44-54 66q63-11 120-11 79 0 149 18t116 52L301-183q-5-11-5-24 0-17 10-26t25-10q12 0 22 7t17 21l561 1319q4 9 4 20 0 17-11 27t-26 11q-20 0-29-19-33-71-99-105t-149-43-218-9h-42q-65 0-117-45t-81-120-30-164q0-50 18-92t52-68 74-25q61 0 109 44t76 113 27 138q-2 49-20 93zm-282-85l18 57 50 91 73 34q33 0 52-42t19-94q0-54-17-111t-48-96-70-39q-37 0-57 37t-20 93q0 70 18 127zm894-372l-15 44-46 71-74 27q-68 0-119-47t-79-121-27-149q0-85 35-141t104-56q67 0 117 43t76 117 28 161q0 51-15 95zM813 238l18 59 52 98 74 40q35 0 52-38t17-96q0-60-18-120t-50-98-71-39q-37 0-55 39t-19 98q0 57 18 116z" glyph-name="percent" unicode="%"/><glyph d="M1061-32h9q18 0 32 13t14 31q0 23-24 39-26 18-83 65t-104 87q65 93 106 175t46 166h59q18 0 27 12t10 29q0 16-9 28t-26 13H844q-16 0-24-11t-8-28q0-17 9-30t25-13h132q-2-44-22-101t-49-109-58-80q-65 53-160 162T534 612l23 18q62 49 102 88t71 94 30 121q0 75-30 133t-87 90-132 33q-71 0-124-32t-83-89-29-132q0-73 40-146t104-158q-54-45-98-87t-86-108-48-134q-1-11-1-31 0-91 39-156t112-98 169-34q112 0 193 39t148 112l63-53q53-45 85-70t56-39q10-5 19-5zM438 743l-33 71-34 130q0 56 22 92t57 54 71 17q62 0 107-43t45-133q0-70-55-134T487 678q-49 65-82 136zm86-254l102-120 171-177q-47-56-122-91T517 65q-103 0-169 53t-66 164q0 19 1 29 5 61 66 134t120 119q55-75 157-195z" glyph-name="ampersand" unicode="&amp;"/><glyph d="M678 1122q0 23-17 36t-41 14q-25 0-42-14t-15-41l32-396q1-10 8-15t17-5q10 0 16 5t8 15l34 395v6z" glyph-name="quotesingle" unicode="'"/><glyph d="M705-144h18q18 0 32 15t15 31q0 8-6 16-92 108-139 280t-47 372q0 199 47 371t139 281q6 8 6 16 0 16-14 31t-33 15q-18 0-31-17-106-140-157-311t-51-386q0-214 51-385t157-312q13-17 31-17z" glyph-name="parenleft" unicode="("/><glyph d="M549 1284h-18q-18 0-32-15t-15-31q0-8 6-16 92-108 139-280t47-372q0-199-47-371T490-82q-6-8-6-16 0-16 14-31t33-15q18 0 31 17Q668 13 719 184t51 386q0 214-51 385t-157 312q-13 17-31 17z" glyph-name="parenright" unicode=")"/><glyph d="M559 1092q-12 21-40 21-30 0-55-19t-26-46q0-9 6-21l119-155q15-21 35-21 18 0 31 11t13 29q0 9-5 21l-78 180zm119-180q-4-14-4-21 0-17 12-28t31-12q21 0 36 21l119 155q5 10 5 21 0 26-25 45t-56 20q-29 0-40-21l-78-180zM559 751l11 11 11 29q0 18-11 29t-30 14l-198 22q-23 0-36-19t-14-46q0-25 13-44t37-20l198 23q19 1 30 12zm199 81l-11-11-11-30q0-17 11-28t30-13l198-23q23 0 36 19t13 45q0 26-13 45t-36 20l-198-22q-19-2-30-13zM637 672q4 12 4 20 0 17-13 28t-31 11q-12 0-20-4t-15-15L443 556q-6-12-6-20 0-27 25-46t56-20q28 0 41 22l78 180zm118 40q-8 10-16 14t-21 5q-18 0-30-11t-13-28q0-6 2-12t3-8l78-180q4-10 15-16t25-6q29 0 55 19t26 47q0 8-6 20L755 712z" glyph-name="asterisk" unicode="*"/><glyph d="M669 804q0 25-14 38t-34 14q-20 0-34-13t-14-39V538H316q-22 0-32-12t-11-29q0-18 10-29t33-12h257V195q0-25 14-38t34-14q20 0 34 13t14 39v261h255q23 0 33 11t10 30q0 17-10 29t-33 12H669v266z" glyph-name="plus" unicode="+"/><glyph d="M518 39l30-23 78-24q0-41-33-82t-76-72q-12-9-12-21 0-10 8-18t20-9q7 0 10 2 43 22 86 63t71 95 28 109q0 57-32 89t-80 32q-39 0-68-25t-30-70q0-46 30-69z" glyph-name="comma" unicode=","/><glyph d="M327 441l10-11 42-12h507q30 0 40 11t11 30q0 19-10 30t-41 11H379q-31 0-41-11t-11-30q0-18 10-29z" glyph-name="hyphen" unicode="-"/><glyph d="M726 134l-30 30-76 31q-45 0-75-30t-31-76q0-46 30-75t76-30q45 0 75 30t31 75q0 45-30 75z" glyph-name="period" unicode="."/><glyph d="M243-212l14-12 33-13q24 0 37 24l664 1326q6 12 6 21 0 17-14 28t-32 11q-12 0-22-5t-15-16L247-178q-4-8-4-17 0-17 14-29z" glyph-name="slash" unicode="/"/><glyph d="M232 429l44-137L408 69l211-85q122 0 210 85t133 222 46 293q0 156-45 294t-133 223-211 86q-121 0-209-85T277 878t-45-294q0-155 44-292zm96 288l33 119 99 192 159 73q92 0 158-73t101-192 34-253q0-134-33-251T779 142 619 69q-93 0-158 72t-99 190-34 252q0 134 33 253z" glyph-name="zero" unicode="0"/><glyph d="M682 1177l-8-4-404-180q-24-10-24-35 0-17 12-31t29-14q9 0 17 4l335 152V82H270q-20 0-31-12t-11-28q0-17 12-29t34-13h800q19 0 29 12t11 29q0 16-10 28t-29 13H735v1048q0 24-12 35t-29 12q-12 0-20-4z" glyph-name="one" unicode="1"/><glyph d="M264 902l15-22 45-22q20 0 31 18t17 48 14 93q2 26 4 38 93 46 207 46 126 0 189-43t63-151q0-60-37-125t-91-127-146-155Q475 399 415 331T314 186 272 37q0-12 3-22t4-15h638q24 0 39 13t15 37v208q0 25-12 38t-32 13q-19 0-35-12t-17-33L863 82H367q21 61 63 121t91 113 128 132q99 100 157 166t99 144 40 156q0 136-90 204t-243 69q-164 0-256-60t-92-189q0-36 15-58z" glyph-name="two" unicode="2"/><glyph d="M717 609l68-65 69-178q0-85-37-152T710 108 547 69q-65 0-100 11t-68 34q-22 14-38 20t-40 7q-16 0-27-11t-11-22q0-30 41-59T411 2t133-19q113 0 205 48t147 135 54 194q0 93-38 164T801 635t-176 40q62 30 115 63t98 91 45 130q0 71-35 122t-96 79-137 27q-56 0-129-18t-126-53-53-79q0-13 11-23t30-10q28 0 42 8t32 27q18 20 36 32t56 22 99 9q86 0 130-41t44-102q0-51-27-90t-72-70-125-79l-67-41q-16-9-23-20t-8-21q0-18 10-27t28-10q9 0 31 3 55 5 68 5 115 0 183-65z" glyph-name="three" unicode="3"/><glyph d="M971 0l7 10 7 24q0 13-6 22t-18 9H803v306h200q18 0 27 11t10 28q0 17-9 28t-26 11H803v676q0 29-11 41t-28 13q-12 0-22-4t-14-8L217 443q-10-13-10-28 0-17 12-30t26-14h462V65H419q-11 0-17-9t-7-22q0-14 7-24t18-10h540q11 0 18 10zM707 449H322l385 570V449z" glyph-name="four" unicode="4"/><glyph d="M1011 495l-44 77-118 120-162 43q-62 0-124-23t-119-70l35 439q0 8 8 8h370q36 0 56 39t21 99q0 16-13 24t-32 9q-18 0-27-17t-24-72H514q-66 0-101-10t-35-50l-20-582q0-16 11-25t26-9q12 0 21 5t14 17q31 62 101 101t148 39q64 0 117-29t86-91 33-156q0-100-48-171T744 102 592 65q-56 0-112 15t-103 50q-11 8-24 8-16 0-28-12t-12-28q0-25 27-44 49-34 110-52t129-19q120 0 218 51t156 145 58 217q0 99-44 176z" glyph-name="five" unicode="5"/><glyph d="M582 741l-83-38-138-112q25 175 126 328t234 264q12 11 12 24 0 17-14 31t-32 15q-14 0-28-12-185-167-293-361T257 426q0-206 98-324T648-17q112 0 198 46t133 130 48 198q0 113-43 200T860 692t-192 49q-86 0-169-38zM353 443l38 67 111 108 169 41q88 0 146-42t86-112 28-151q0-79-33-145t-97-105-153-39q-101 0-167 40t-97 108-31 151q0 79 38 146z" glyph-name="six" unicode="6"/><glyph d="M638-7l13 14 14 39q0 202 38 375t99 320 162 340q7 13 7 30 0 23-12 41t-31 19H330q-25 0-40-14t-16-40V916q0-25 14-39t33-14q20 0 34 14t15 39v169h494q-90-172-152-324T609 428 569 47q0-25 15-39t35-15q19 0 32 14z" glyph-name="seven" unicode="7"/><glyph d="M290 831l34-52 81-88 121-81 18-11q-82-48-138-88T305 409t-45-135q0-153 109-222t273-69q171 0 275 68t105 217q0 78-43 137t-99 97-152 93q80 55 125 93t81 95 36 130q0 137-95 205t-255 69q-94 0-169-34t-118-99-43-157q0-66 34-118zm588 17l-30-47-80-84-126-82-26 14q-86 48-131 79t-74 74-29 104q0 67 34 111t91 64 121 20q117 0 183-46t67-150q0-57-30-104zM356 340l44 52 98 90 128 78 47-25q78-41 128-74t88-83 37-112q0-197-278-197-123 0-207 47t-85 166q0 58 44 110z" glyph-name="eight" unicode="8"/><glyph d="M695 429l83 38 138 112Q872 271 554 6q-12-11-12-24 0-17 14-31t32-15q15 0 28 12Q738 58 824 168t141 253 55 323q0 206-98 324t-293 119q-112 0-198-46t-133-130-48-198q0-113 43-200t124-135 192-49q86 0 169 38zm229 298l-38-67-111-108-169-41q-88 0-146 42t-86 112-28 151q0 79 33 145t97 105 153 39q101 0 167-40t97-108 31-151q0-79-38-146z" glyph-name="nine" unicode="9"/><glyph d="M750 750l-30 30-76 31q-45 0-75-30t-30-76q0-46 29-75t76-30q45 0 75 30t31 75q0 45-30 75zm0-616l-30 30-76 31q-45 0-75-30t-30-76q0-46 29-75t76-30q45 0 75 30t31 75q0 45-30 75z" glyph-name="colon" unicode=":"/><glyph d="M750 750l-30 30-76 31q-45 0-75-30t-30-76q0-46 29-75t76-30q45 0 75 30t31 75q0 45-30 75zM551 55l28-21 75-21q0-41-25-67t-72-58q-8-6-12-14t-5-16q0-14 12-25t29-11q14 0 25 6 68 35 109 92t41 139q0 57-32 89t-80 32q-38 0-65-22t-28-62q0-41 28-62z" glyph-name="semicolon" unicode=";"/><glyph d="M974 132h7q18 0 31 16t13 35q0 27-27 38L179 554l809 328q21 8 21 32 0 19-13 36t-31 18q-4 0-10-2L87 605q-12-5-19-20t-7-35q0-18 7-33t19-20l880-362q7-3 14-3z" glyph-name="less" unicode="&lt;"/><glyph d="M320 689l-12-13-12-32q0-19 12-32t33-14h559q21 0 33 13t12 33q0 18-12 31t-33 14H341q-21 0-33-13zm0-342l-12-13-12-32q0-19 12-32t33-14h559q21 0 33 13t12 33q0 18-12 31t-33 14H341q-21 0-33-13z" glyph-name="equal" unicode="="/><glyph d="M243 968h-7q-18 0-31-16t-13-35q0-27 27-38l819-333-809-328q-21-8-21-32 0-19 13-36t31-18q4 0 10 2l868 361q12 5 19 20t7 35q0 18-7 33t-19 20L250 965q-7 3-14 3z" glyph-name="greater" unicode="&gt;"/><glyph d="M492 1188l-61-26-96-75-35-116q0-35 12-57t37-23q28 0 42 23t20 56 8 86l2 26q38 17 74 23t75 6q66 0 115-25t75-70 27-104q0-18-3-38-7-49-27-89t-46-69-68-73q-45-45-71-77t-45-75-18-98q0-28 6-41t28-14q19 0 25 13t7 43q0 38 18 71t47 62 76 70q60 52 98 92t64 95 27 122q0 91-42 154t-118 96-172 32q-81 0-142-26zM650 137l-29 28-72 29q-43 0-72-29t-30-72q0-43 29-72t73-30q43 0 72 30t29 73q0 43-29 71z" glyph-name="question" unicode="?"/><glyph d="M814 1012l93-47 146-137 54-210q0-152-38-250t-143-99q-70 0-76 58 0 10 1 15l29 300q-26 35-51 61t-72 50-110 23q-70 0-123-37t-81-107-29-166q0-84 29-147t77-96 102-34q50 0 96 29t81 86q15-57 44-83t80-27q148 0 215 108t67 283q0 158-65 274t-182 178-263 62q-181 0-320-95T159 756 83 439q0-147 65-274T341-39t308-77h2q93 0 169 19t158 71q19 12 19 33 0 15-10 26t-26 12q-13 0-23-5-59-30-134-51T648-33q-147 0-250 65T242 204t-53 232q0 142 63 275t180 217 267 84q115 0 208-47zM631 263q-62 0-96 56t-35 141q0 104 37 172t115 68q59 0 90-16t42-48 11-86q0-140-36-213t-127-74h-1z" glyph-name="at" unicode="@"/><glyph d="M462 0l13 12 14 31q0 17-13 30t-37 13H280l112 306h483L982 86H796q-23 0-36-12t-13-30q0-18 13-31t38-13h366q23 0 36 13t14 31q0 17-12 29t-36 13h-79L725 1106q-23 65-81 65H341q-23 0-36-13t-13-30q0-18 13-30t37-13h217L174 86H89q-23 0-36-13T40 43q0-18 13-30T90 0h348q24 0 37 12zm184 1072l199-597H425l221 597z" glyph-name="A" unicode="A"/><glyph d="M914 681l46 60 47 148q0 152-113 217t-302 65H236q-23 0-35-12t-13-30q0-18 13-31t36-13h166V86H243q-23 0-36-13t-14-30q0-18 13-30t38-13h358q225 0 363 85t139 263q0 141-72 218t-189 94q71 21 117 81zm-415-8v412h106q151 0 233-46t83-154q0-72-41-120t-107-70-144-22H499zm0-587v511h130q117 0 197-16t131-67 51-151q0-149-106-213T605 86H499z" glyph-name="B" unicode="B"/><glyph d="M1146 360l-18 13-39 14q-30 0-40-28-41-136-139-213T670 69q-119 0-220 63T289 316t-61 284q0 145 54 259t154 178 235 64q89 0 164-34t125-97 66-143q4-22 17-34t31-13q19 0 32 12t14 35v293q0 24-14 37t-35 14q-20 0-34-13t-15-37v-106q-27 49-80 88t-125 61-149 23q-153 0-275-73T202 909t-70-302q0-187 69-328T393 60t276-77q137 0 237 51t160 131 79 171q1 2 1 7 0 17-18 30z" glyph-name="C" unicode="C"/><glyph d="M157 1171q-23 0-36-13t-14-31q0-17 12-29t36-13h159V86H151q-23 0-36-13t-14-30q0-18 13-30t38-13h361q280 0 425 141t146 450q0 292-151 436t-418 144H157zM410 86v999h124q219 0 336-128t118-366q0-256-112-380T520 86H410z" glyph-name="D" unicode="D"/><glyph d="M837 805l-11 13-27 14q-15 0-26-12t-14-33l-13-133H420v431h609l14-244q1-18 13-28t29-10q16 0 28 11t12 33v270q0 25-15 39t-41 15H191q-23 0-36-13t-14-31q0-17 12-29t36-13h135V85H154q-23 0-36-12t-14-30q0-17 13-30t38-13h926q25 0 40 14t16 39v270q0 25-12 38t-30 14q-17 0-30-11t-14-28l-16-251H420v492h326l13-148q1-20 13-31t27-12q16 0 27 13t11 38v342q0 26-11 39z" glyph-name="E" unicode="E"/><glyph d="M848 805l-11 13-27 14q-15 0-26-12t-14-33l-13-133H420v431h622l14-244q1-18 13-28t29-10q16 0 28 11t12 33v270q0 25-15 39t-41 15H191q-23 0-36-13t-14-31q0-17 12-29t36-13h135V85H154q-23 0-36-12t-14-30q0-17 13-30t38-13h616q21 0 33 12t12 31q0 17-12 29t-34 13H420v492h337l13-148q1-20 13-31t27-12q16 0 27 13t11 38v342q0 26-11 39z" glyph-name="F" unicode="F"/><glyph d="M1168 510l13 13 14 31q0 17-13 29t-36 13H862q-23 0-36-12t-13-30q0-18 13-31t37-13h124V332q-38-119-134-191T607 69q-119 0-215 63T241 316t-56 284q0 147 49 260t144 177 230 64q89 0 164-34t125-97 66-143q4-22 17-34t31-13q19 0 32 12t14 35v293q0 24-14 37t-35 14q-20 0-34-13t-15-37v-106q-27 49-80 88t-125 61-149 23q-152 0-269-72T154 911 89 607q0-188 65-329T336 60t270-77q88 0 166 24t134 68 81 100V51q0-28 14-43t35-16q19 0 33 15t14 42v461h61q24 0 37 13z" glyph-name="G" unicode="G"/><glyph d="M482 0l13 13 14 33q0 16-12 28t-36 12H361v472h540V86H801q-23 0-35-12t-13-30q0-18 13-31t37-13h294q23 0 36 13t14 30q0 18-13 30t-37 13H997v999h100q24 0 37 13t13 32q0 16-13 28t-37 13H803q-23 0-36-13t-14-31q0-17 12-29t36-13h100V638H361v447h100q23 0 35 12t13 30q0 18-13 31t-37 13H157q-23 0-36-13t-14-30q0-18 13-30t37-13h108V86H141q-23 0-35-12T93 44q0-18 13-31t37-13h316q23 0 36 13z" glyph-name="H" unicode="H"/><glyph d="M1019 0l13 12 13 31q0 17-13 30t-36 13H710v999h286q23 0 36 12t13 30q0 18-13 31t-37 13H310q-24 0-37-13t-14-31q0-17 13-29t37-13h305V86H309q-23 0-36-13t-14-30q0-18 13-30t38-13h685q24 0 37 12z" glyph-name="I" unicode="I"/><glyph d="M1026 1085q23 0 36 13t13 30q0 18-13 30t-37 13H410q-23 0-36-13t-13-31q0-17 12-29t36-13h350V314q0-85-43-140T604 94 460 68q-59 0-111 14t-83 41-32 59v101q0 21-14 33t-33 12q-19 0-34-12t-15-33V171q0-55 43-97t115-64 155-23q103 0 195 35t150 110 59 185v768h171z" glyph-name="J" unicode="J"/><glyph d="M609 0l13 12 13 31q0 17-13 30t-36 13H342v379l185 156 478-535H839q-23 0-36-13t-13-30q0-18 13-30t37-13h418q23 0 36 12t13 31q0 17-12 30t-36 13h-137L601 676l438 408h138q23 0 35 12t13 31q0 18-13 31t-36 13H814q-23 0-36-12t-14-28q0-15 13-26t36-11h89q19 0 19-6 0-3-7-10L338 558v526h193q23 0 35 12t13 30q0 18-13 31t-37 14H84q-24 0-37-13t-14-31q0-18 13-30t37-13h159V86H83q-23 0-36-13T33 43q0-18 13-30T84 0h501q24 0 37 12z" glyph-name="K" unicode="K"/><glyph d="M144 1171l-13-13-14-31q0-17 13-29t36-13h227V86H124q-23 0-36-13T74 43q0-18 13-30t38-13h895q31 0 49 18t23 48l30 321v6q0 23-15 36t-36 13q-19 0-33-11t-17-32l-34-276q-2-21-12-28t-29-9H489v999h152q23 0 36 12t14 30q0 18-13 31t-38 13H167q-23 0-36-13z" glyph-name="L" unicode="L"/><glyph d="M1193 0l13 13 14 31q0 17-12 29t-36 13h-128v999h113q23 0 36 12t14 30q0 18-13 31t-38 13H964q-16 0-28-8t-17-22L629 473l-301 663q-16 35-46 35H84q-23 0-36-13t-14-31q0-17 13-29t36-13h119V86H69q-23 0-36-13T20 43q0-18 13-30T70 0h347q24 0 37 13t14 31q0 17-13 29t-37 13H298v892l267-593q9-22 25-32t35-11q20 0 38 12t28 36l257 592V86H815q-23 0-36-12t-13-30q0-18 13-31t38-13h353q23 0 36 13z" glyph-name="M" unicode="M"/><glyph d="M285 86H159q-23 0-36-13t-13-30q0-18 13-30t37-13h358q24 0 37 12t13 31q0 17-13 30t-36 13H381v998L934 22q9-18 24-28t32-10q21 0 35 16t14 47v1038h96q23 0 35 12t13 30q0 18-13 31t-37 13H796q-24 0-37-13t-14-31q0-17 13-29t36-13h149V194l-486 953q-6 13-15 18t-25 6H130q-23 0-36-13t-14-31q0-17 13-29t36-13h156V86z" glyph-name="N" unicode="N"/><glyph d="M1132 738l-58 138-175 225-279 86q-163 0-279-86T167 877t-59-295q0-156 58-293T341 68t279-85q163 0 279 84t174 222 59 293q0 156-58 294zm-96-289l-47-117-141-190-228-73q-134 0-228 72T251 331t-47 251q0 135 48 253t142 192 226 74q132 0 226-73t142-192 48-254q0-133-47-250z" glyph-name="O" unicode="O"/><glyph d="M188 1171q-23 0-36-13t-14-31q0-17 13-29t36-13h159V86H173q-23 0-36-13t-14-30q0-18 13-30t38-13h596q24 0 37 12t13 31q0 17-13 30t-36 13H442v441h116q163 0 267 18t174 88 69 214q0 144-73 214t-183 90-280 20H188zm254-564v478h110q131 0 215-12t144-65 61-165q0-106-50-157t-128-65-200-14H442z" glyph-name="P" unicode="P"/><glyph d="M521-24q78-95 119-137t90-63 124-22q40 0 102 21t98 56q23 14 23 39 0 17-12 30t-28 14q-16 0-29-9-100-67-172-67-62 0-114 54l-86 91q158 4 270 89t169 221 57 289q0 156-58 294t-175 225-279 86q-163 0-279-86T167 877t-59-295q0-137 45-260t135-211T506-5l15-19zm515 473l-47-117-141-190-228-73q-134 0-228 72T251 331t-47 251q0 135 48 253t142 192 226 74q132 0 226-73t142-192 48-254q0-133-47-250z" glyph-name="Q" unicode="Q"/><glyph d="M429 82v460h175q35 0 92 5t68 9L944 82h-51q-23 0-36-12t-13-28q0-17 13-29t38-13h235q33 0 48 12t15 30q0 17-14 28t-50 12h-84L841 578q89 33 147 100t59 175q0 130-59 199t-165 94-266 25H237q-24 0-37-13t-14-31q0-17 13-29t37-13h97V82H208q-24 0-37-12t-13-29q0-16 13-28t38-13h399q24 0 37 12t13 29q0 17-13 29t-36 12H429zm127 1003q151 0 234-18t122-69 39-152q0-95-50-144t-137-66-228-17H429v466h127z" glyph-name="R" unicode="R"/><glyph d="M918 858q0-22 13-34t32-13q20 0 33 13t13 40v253q0 38-9 54t-31 16q-28 0-40-23t-12-69q-47 52-124 72t-166 20q-96 0-174-35t-125-105-46-166q0-87 36-142t96-88 153-65l164-56q81-28 129-55t75-68 26-103q0-121-75-178T692 69q-81 0-158 27t-127 69-49 85v119q0 23-13 36t-33 13q-19 0-31-12t-13-35V57q0-42 11-58t37-16q23 0 35 32t12 90q53-56 147-89t179-33q102 0 185 33t133 106 50 186q0 83-35 140t-100 97-171 76l-136 47q-100 35-144 56t-68 58-25 104q0 100 72 157t200 58q62 0 121-17t100-51 47-84v-91z" glyph-name="S" unicode="S"/><glyph d="M570 1085V86H328q-23 0-36-12t-14-30q0-18 14-31t38-13h576q24 0 37 13t14 31q0 17-13 29t-36 13H666v999h352l10-271q1-20 14-31t30-12q19 0 32 13t14 39v294q0 27-9 40t-31 14H162q-23 0-32-13t-10-41V823q0-25 15-39t34-15q16 0 28 11t13 34l12 271h348z" glyph-name="T" unicode="T"/><glyph d="M1056 1085h118q33 0 51 12t18 30q0 18-18 31t-52 13H840q-24 0-37-13t-14-31q0-17 13-29t37-13h121V411q0-100-38-177T815 113 654 69q-149 0-229 90t-80 254v672h162q23 0 36 12t13 30q0 18-13 31t-37 13H105q-23 0-36-13t-14-31q0-17 13-29t36-13h145V413q0-133 51-230T442 35t212-52q118 0 209 54t142 151 51 223v674z" glyph-name="U" unicode="U"/><glyph d="M803 1171l-13-12-14-31q0-17 13-30t37-13h120L671 119l-303 966h131q23 0 36 13t13 30q0 18-13 30t-37 13H158q-23 0-36-13t-14-31q0-17 12-29t36-13h104L602 20q9-27 24-41t40-15q25 0 37 12t27 44l316 1065h86q23 0 36 13t13 30q0 18-13 30t-37 13H827q-24 0-37-12z" glyph-name="V" unicode="V"/><glyph d="M858 196L689 850q-4 17-16 26t-27 10q-15 0-28-9t-17-27L424 199l-138 886h114q24 0 37 13t14 31q0 17-13 29t-36 13H100q-23 0-36-12t-13-30q0-18 13-31t37-13h84L351 35q3-24 18-38t34-14q17 0 31 11t20 33l187 674L811 35q6-24 21-38t32-14q20 0 34 11t18 33l164 1058h70q24 0 37 13t14 31q0 17-13 29t-37 13H872q-23 0-36-12t-13-30q0-18 13-31t37-13h107L858 196z" glyph-name="W" unicode="W"/><glyph d="M765 1171v-44q0-42 39-42h101L628 676l-275 409h148q39 0 39 42 0 44-40 44H164q-40 0-40-44 0-42 39-42h82l329-489L226 82h-85q-39 0-39-41t40-41h348q40 0 40 41t-39 41H342l290 428L921 82H765q-23 0-36-12t-13-29q0-17 13-29t37-12h332q41 0 41 42 0 40-39 40h-73L686 589l336 496h73q39 0 39 42 0 44-40 44H805q-40 0-40-44z" glyph-name="X" unicode="X"/><glyph d="M781 1171l-14-11-14-27q0-15 13-26t37-12h111L646 633l-276 462h136q23 0 36 11t14 27q0 15-13 26t-38 12H175q-23 0-37-11t-14-27q0-15 13-26t37-12h84l335-542V86H332q-23 0-36-12t-14-30q0-18 14-31t38-13h585q23 0 36 13t14 31q0 17-12 29t-36 13H689v462l323 547h55q23 0 36 11t13 26q0 16-13 27t-38 12H804q-23 0-37-11z" glyph-name="Y" unicode="Y"/><glyph d="M323 757l13 10 14 30 16 288h514L247 95q-2-4-15-25t-13-39q0-31 52-31h722q23 0 37 14t14 39l-10 332q0 25-12 37t-29 13q-19 0-34-14t-17-37V86H369l622 995q10 16 10 35 0 22-13 38t-36 17H322q-35 0-51-15t-17-40V806q0-23 15-36t36-13q18 0 31 10z" glyph-name="Z" unicode="Z"/><glyph d="M515 1331V-90q0-27 14-42t41-16h232q13 0 20 12t8 30q0 17-7 29t-21 13H611v1311h191q13 0 20 12t8 30q0 17-7 29t-21 13H570q-55 0-55-61z" glyph-name="bracketleft" unicode="["/><glyph d="M319 1162l-9 5-22 6q-18 0-32-11t-14-28q0-11 5-21L911-213q13-24 38-24 18 0 32 12t14 30q0 9-4 17L324 1152q-5 10-14 15z" glyph-name="backslash" unicode="\"/><glyph d="M739-148v1421q0 27-14 42t-41 16H452q-13 0-20-12t-8-30q0-17 7-29t21-13h191V-64H452q-13 0-20-12t-8-30q0-17 7-29t21-13h232q55 0 55 61z" glyph-name="bracketright" unicode="]"/><glyph d="M680 969q-13 28-26 38t-29 11q-33 0-59-54L326 477q-10-19-10-41 0-20 11-32t29-13q14 0 27 9t22 26l222 433 204-437q7-13 18-22t27-9q19 0 33 13t15 32q0 8-6 24L680 969z" glyph-name="asciicircum" unicode="^"/><glyph d="M220 91l-12-13-12-32q0-19 12-32t33-14h759q21 0 33 13t12 33q0 18-12 31t-33 14H241q-21 0-33-13z" glyph-name="underscore" unicode="_"/><glyph d="M250 1131L92 1267q-11 10-28 10-22 0-40-18t-18-39q0-18 19-31l79-50q185-116 261-160 4-4 12-4 13 0 23 11t10 24q0 15-10 21-150 100-308 236z" glyph-name="grave" unicode="`"/><glyph d="M814 470l-73-5q-163-11-259-28t-163-70-66-157q0-103 63-164t175-62q104 0 192 37t138 92q12-71 47-95t86-25q45 0 86 19t74 54q10 10 10 25 0 16-11 29t-26 13q-13 0-24-12-17-18-46-33t-55-16q-24 0-38 12t-14 48v312q0 122-26 202t-91 124-181 43q-102 0-181-27t-123-75-44-108q0-32 15-52t45-20q34 0 48 39t18 116q53 24 105 34t116 11q112 0 157-62t46-179v-20zm-54-338l-84-33-174-34q-69 0-110 34t-42 111q0 70 48 106t129 50 246 31l41 4V189q-54-57-138-90z" glyph-name="a" unicode="a"/><glyph d="M341 1180l-16-2-189-19q-17-3-25-15t-8-26q0-16 11-27t28-11q6 0 11 1t9 2l128 8V74q0-46 11-62t30-16q16 0 26 6t18 29 7 71q52-53 127-86t165-33q115 0 199 53t130 147 45 215q0 119-46 213T871 759t-201 54q-91 0-157-27t-127-79v434q0 39-41 39-4 0-20-2zM576 65l-71 39-119 106v392q103 129 278 129 92 0 157-45t98-121 33-167q0-92-32-167t-95-121-153-45q-96 0-167 39z" glyph-name="b" unicode="b"/><glyph d="M183 276l56-95L397 34l235-51q85 0 180 32t148 90q18 20 18 42 0 21-10 31t-25 10q-24 0-41-16-62-57-124-82T624 65q-158 0-251 86t-94 256q0 101 44 173t127 112 200 39q54 0 103-10t100-35l5-41q10-88 21-124t40-37q29 0 44 22t16 58q0 129-93 189t-251 60q-125 0-228-49T244 623t-61-216q0-131 56-226z" glyph-name="c" unicode="c"/><glyph d="M921-3l186 20q18 4 28 16t10 28q0 15-10 25t-30 10h-6L951 85v1056q0 39-41 39-4 0-20-2l-189-19q-17-3-25-15t-8-26q0-16 11-27t28-11q6 0 11 1t9 2l128 8V707q-60 52-126 79t-158 27q-115 0-200-53T239 612t-46-214q0-121 46-215T370 36t201-53q92 0 169 34t124 90l3-60q1-25 14-37t33-13h7zM752 731l103-129V210Q754 65 573 65q-90 0-154 45t-97 121-33 167q0 91 33 167t98 121 157 45q175 0 278-129z" glyph-name="d" unicode="d"/><glyph d="M212 276l57-95L428 34l237-51q85 0 182 33t150 89q18 20 18 42 0 18-11 31t-29 13q-20 0-41-17-57-54-129-81T657 65q-154 0-249 82T308 387l629 5q35 0 56 24t21 63q0 107-46 182T840 774t-186 39q-122 0-222-49T272 623t-60-216q0-131 57-226zm600 455l55-79 62-187-618-4q18 128 108 199t237 71q156 0 211-79z" glyph-name="e" unicode="e"/><glyph d="M1036 1160l-16 14-41 14q-210 0-322-86T544 838v-72H348q-20 0-31-12t-11-28q0-17 12-29t34-13h192V82H323q-20 0-31-12t-11-28q0-17 12-29t34-13h675q19 0 29 12t11 29q0 16-10 28t-29 13H641l-1 602h309q19 0 30 12t11 29q0 16-10 28t-30 13H641v66q0 96 26 153t91 86 182 38v-93q0-25 14-38t33-14q20 0 34 14t15 42v117q0 23-16 37z" glyph-name="f" unicode="f"/><glyph d="M399 216l25 22 69 36 95 13q169 0 252 61t84 192q0 90-57 161l169 74q70 0 101 14t32 37q0 51-58 51-59 0-121-42L838 734q-47 39-109 59t-130 20q-89 0-162-29t-117-90-44-149q0-82 43-130t129-84q-29-4-63-24t-58-53-24-69q0-45 23-74t71-53q-53-26-86-79t-33-126q0-110 86-156t221-47q107 0 200 26t151 79 58 131q0 92-40 140T839 91t-198 18h-93q-62 0-94 10t-44 28-11 43q0 26 25 48zm96 145l-61 46-62 135q0 95 63 142t162 47q101 0 166-47t65-150q0-95-66-134t-171-39q-96 0-157 46zM743 37l54-13 77-47 24-95q0-78-94-114t-221-36q-108 0-158 31t-51 115q0 28 13 62t34 62 39 35h184q99 0 153-13z" glyph-name="g" unicode="g"/><glyph d="M896 82H750q-20 0-31-11t-11-28q0-17 12-30t34-13h345q20 0 31 12t11 30q0 16-10 28t-30 12H992v451q0 134-70 207t-211 73q-67 0-130-23t-112-62-73-89v502q0 39-41 39-4 0-20-2l-189-19q-16-1-24-14t-9-27q0-16 11-26t28-10l148 9V82H192q-20 0-31-11t-11-28q0-17 12-30t34-13h303q23 0 36 12t14 30q0 16-12 28t-36 12H396v415q0 53 41 108t114 90 165 36q89 0 134-50t46-141V82z" glyph-name="h" unicode="h"/><glyph d="M609 1054l24-24 59-24q35 0 58 24t24 58q0 35-24 59t-58 24q-34 0-58-24t-25-59q0-34 24-58zM1110 0l11 12 11 29q0 16-10 28t-30 13H759v697q0 15-10 23t-26 9q-8 0-11-1l-398-55q-16-2-24-13t-8-27q0-17 11-29t30-13l7 1 333 45V82H291q-20 0-31-11t-11-28q0-17 12-30t34-13h796q19 0 30 12z" glyph-name="i" unicode="i"/><glyph d="M719 1054l24-24 59-24q35 0 58 24t24 58q0 35-24 59t-58 24q-34 0-58-24t-25-59q0-34 24-58zm176-270q0 15-10 22t-26 7H339q-19 0-29-11t-11-28q0-17 11-30t33-13h456V-1q0-73-66-122t-165-74-194-24q-27 0-42-13t-16-32q0-18 14-31t37-13q126 0 248 36t201 105 79 158v795z" glyph-name="j" unicode="j"/><glyph d="M464 1165l-10 8-26 9-12-1-234-42q-16-2-24-13t-8-27q0-17 11-29t30-13q4 0 7 1l170 24V82H196q-20 0-31-12t-11-28q0-17 12-29t34-13h334q19 0 29 12t11 29q0 16-10 28t-29 13h-71v226l126 92L889 82H779q-22 0-34-12t-12-29q0-16 11-28t31-13h313q19 0 29 12t11 29q0 16-10 28t-30 13h-87L660 446l317 246h89q16 0 28 11t12 26q0 20-10 33t-31 13H748q-22 0-34-12t-12-30q0-17 11-29t31-12h103L464 399v751q0 15-10 23z" glyph-name="k" unicode="k"/><glyph d="M672 1181l-418-38q-16-2-24-13t-8-27q0-17 11-29t30-13l7 1 353 28V82H254q-20 0-31-12t-11-28q0-17 12-29t34-13h800q19 0 29 12t11 29q0 16-10 28t-29 13H719v1068q0 15-10 23t-26 9l-11-1z" glyph-name="l" unicode="l"/><glyph d="M591 26l12-13 34-13h166q20 0 31 12t11 30q0 16-10 28t-30 12H687v427q1 56 28 107t71 83 86 32q48 0 73-45t26-146V43q0-17 12-30t34-13h157q20 0 31 12t11 30q0 16-10 28t-30 12h-109v451q0 92-25 155t-67 94-97 31q-63 0-117-41t-90-118q-22 79-69 119t-106 40q-64 0-114-45t-79-129l-5 120q-2 39-39 39-4 0-18-2L77 763q-17-4-25-15t-8-26q0-16 11-27t28-11q10 0 20 3l108 22V82H103q-20 0-31-11T61 43q0-17 12-30t34-13h283q23 0 36 12t14 30q0 16-12 28t-36 12h-85v421q2 58 28 110t67 85 84 33q48 0 76-46t29-145V43q0-17 12-30z" glyph-name="m" unicode="m"/><glyph d="M894 82H748q-20 0-31-11t-11-28q0-17 12-30t34-13h345q20 0 31 12t11 30q0 16-10 28t-30 12H990v451q0 134-70 207t-211 73q-68 0-132-23t-113-62-74-89l-5 120q-2 39-39 39-4 0-18-2l-164-33q-17-4-25-15t-8-26q0-16 11-27t28-11q10 0 20 3l108 22V82H190q-20 0-31-11t-11-28q0-17 12-30t34-13h303q23 0 36 12t14 30q0 16-12 28t-36 12H394v421q0 52 41 105t114 88 165 35q89 0 134-50t46-141V82z" glyph-name="n" unicode="n"/><glyph d="M196 273l53-94L398 34l222-51q126 0 222 51t149 145 53 219q0 126-53 220T842 762t-222 51q-126 0-222-50T249 618t-53-220q0-125 53-219zm108 222l37 75 109 118 170 43q98 0 169-42t109-118 38-173q0-98-37-173T790 107 620 65q-98 0-169 42T342 224t-38 174q0 97 37 172z" glyph-name="o" unicode="o"/><glyph d="M394 798h-37q-4 0-18-2l-164-33q-17-4-25-15t-8-26q0-16 11-27t28-11q6 0 11 1t9 2l108 21v-996h-90q-19 0-29-12t-11-28q0-17 11-29t31-13h396q22 0 34 13t12 30q0 16-11 27t-31 12H405V89q60-52 126-79t158-27q115 0 200 53t132 148 46 214q0 121-45 215T893 760t-200 53q-89 0-165-34t-129-89l-3 69q-2 39-39 39zM508 65L405 194v392q47 67 118 106t168 39q90 0 153-45t95-120 32-168q0-91-33-167t-98-121-157-45q-175 0-278 129z" glyph-name="p" unicode="p"/><glyph d="M958 770l-11 15-30 15q-16 0-26-6t-18-29-7-71q-52 53-127 86t-165 33q-115 0-199-53T245 613t-45-215q0-119 46-213T377 37t201-54q91 0 157 27t127 79v-377H646q-20 0-31-11t-11-28q0-17 12-30t34-13h396q20 0 31 12t11 30q0 16-10 28t-30 12h-90V724q0 46-11 61zm-286-39l71-39 119-106V194Q759 65 584 65q-92 0-157 45t-98 121-33 167q0 92 32 167t95 121 153 45q96 0 167-39z" glyph-name="q" unicode="q"/><glyph d="M920 586l14-13 33-14q20 0 34 14t15 42v138q0 30-20 45t-68 15q-278 0-392-175l-4 104q-1 28-8 42t-30 14q-10 0-23-3l-171-34q-14-3-22-13t-8-25q0-16 10-28t30-12q8 0 12 1l122 25V82H261q-20 0-31-12t-11-28q0-17 12-29t34-13h610q19 0 30 12t11 29q0 17-10 29t-30 12H540v444q40 100 143 152t237 53V611q0-25 14-38z" glyph-name="r" unicode="r"/><glyph d="M287 502l55-48 155-67 266-52q64-12 91-43t27-83q0-73-60-108T646 65q-85 0-155 26t-110 72-41 102q0 32-9 42t-27 10q-14 0-25-13t-11-39l-2-226q0-17 12-28t28-11q15 0 25 10t11 32v60q55-63 135-91t175-28q149 0 237 56t89 169q0 103-52 153t-150 69l-259 52q-71 16-99 44t-28 75q0 130 212 130 109 0 184-31t103-94q1-47 8-66t32-19q20 0 29 9t11 28l2 201q0 23-12 36t-29 13q-17 0-30-13t-12-37v-37q-30 39-111 65t-168 27q-137 0-229-52t-93-175q0-84 55-132z" glyph-name="s" unicode="s"/><glyph d="M876 692q19 0 29 12t11 29q0 16-10 28t-29 13H505v239q0 22-7 33t-29 12q-29 0-41-25t-16-80-3-179H262q-20 0-31-11t-11-28q0-17 12-30t34-13h143V169q0-49 35-92t95-68 128-26q67 0 135 15t119 40 73 50q5 7 5 15 0 17-14 34t-28 17q-7 0-11-4-48-36-123-60T677 65q-77 0-124 33t-48 106v488h371z" glyph-name="t" unicode="t"/><glyph d="M366 768q0 14-9 24t-25 10q-4 0-12-2l-175-35q-18-4-27-14t-9-24q0-17 13-30t33-13q11 0 17 2l98 20V262q0-83 34-146t101-98 156-35q94 0 181 43t131 108l5-87q1-25 14-37t33-13h7l186 20q18 4 28 16t10 28q0 15-10 25t-30 10h-6L962 85v683q0 14-9 24t-25 10q-4 0-12-2l-174-35q-19-4-28-14t-10-25q0-17 13-30t34-13q9 0 18 3l97 20V231q-22-46-71-84T683 87 562 65q-97 0-146 53t-50 141v509z" glyph-name="u" unicode="u"/><glyph d="M130 774v-41q0-41 42-41h101L567 59q21-46 38-59t42-14q23 0 38 12t34 56l267 638h89q42 0 42 41t-46 41H810q-40 0-40-42 0-40 39-40h85L650 92 383 692h109q38 0 38 40 0 42-39 42H176q-46 0-46-41z" glyph-name="v" unicode="v"/><glyph d="M465 774v-41q0-41 42-41h51l49-137L438 92 256 692h52q38 0 38 40 0 42-39 42H72q-46 0-46-41t42-41h78L355 59q15-46 34-59t46-14q24 0 40 12t32 56l144 379L786 59q17-45 36-59t44-14q25 0 42 13t30 55l192 638h69q42 0 42 41t-46 41H974q-40 0-40-42 0-40 39-40h65L869 92 657 692h109q38 0 38 40 0 42-39 42H511q-46 0-46-41z" glyph-name="w" unicode="w"/><glyph d="M1063 0l13 12 14 30q0 16-13 28t-36 12h-71L682 403l247 289h98q41 0 41 42 0 40-39 40H762q-42 0-42-40 0-42 46-42h45L623 469 423 692h40q40 0 40 42 0 40-38 40H228q-42 0-42-40 0-42 46-42h88l250-286L297 82h-84q-42 0-42-40 0-42 46-42h247q40 0 40 42 0 40-38 40h-59l221 258L853 82h-80q-24 0-37-12t-14-28q0-17 14-29t42-13h261q24 0 37 12z" glyph-name="x" unicode="x"/><glyph d="M150 774v-42q0-40 41-40h93q27-59 115-258 17-38 79-178T597-2l-54-139q-11-29-37-57t-63-45-72-18q-68 0-68-48 0-24 14-38t54-14q107 0 177 73T670-83l303 775h79q42 0 42 41t-46 41H783q-40 0-40-42 0-40 39-40h89L643 95 388 692h102q39 0 39 40 0 42-41 42H196q-46 0-46-42z" glyph-name="y" unicode="y"/><glyph d="M301 772l-14-14-14-32V500q0-23 13-36t32-14q17 0 29 12t13 33l8 197h461L295 109q-17-19-17-50 0-27 14-43t42-16h613q19 0 35 14t16 32v269q0 20-12 31t-29 11q-17 0-30-10t-14-28L902 82H387l552 600q8 8 13 20t5 25q0 19-14 32t-47 13H319q-18 0-32-14z" glyph-name="z" unicode="z"/><glyph d="M597 1108l25 27 81 39 157 12q13 0 20 12t8 30q0 17-7 29t-21 13q-156 0-233-25t-101-75-24-136q0-50 8-97t25-111q15-58 22-95t7-74q0-39-26-55t-97-17q-23 0-35-16t-12-40q0-25 13-43t34-19q69 0 96-20t27-62q0-37-7-74t-22-95q-16-64-24-111t-9-97q0-87 24-135t101-74 233-26q13 0 20 12t8 30q0 17-7 29t-21 13q-101 0-157 11t-81 39-25 78q0 39 7 83t22 108q16 76 23 120t8 89q0 40-4 65t-24 46-61 30q41 8 60 26t24 43 5 63q0 44-7 88t-24 121q-14 63-21 107t-8 84q0 50 25 77z" glyph-name="braceleft" unicode="{"/><glyph d="M639-56q0-56 60-56 22 0 41 12t19 33v1275q-2 23-17 36t-41 13q-25 0-43-13t-19-36V-56z" glyph-name="bar" unicode="|"/><glyph d="M674-65l-25-27-81-39-157-12q-13 0-20-12t-8-30q0-17 7-29t21-13q156 0 233 25t101 75T769 9q0 50-8 97t-25 111q-15 58-22 95t-7 74q0 39 26 55t97 17q23 0 35 16t12 40q0 25-13 43t-34 19q-69 0-96 20t-27 62q0 37 7 74t22 95q16 64 24 111t9 97q0 87-24 135t-101 74-233 26q-13 0-20-12t-8-30q0-17 7-29t21-13q101 0 157-11t81-39 25-78q0-39-7-83t-22-108q-16-76-23-120t-8-89q0-40 4-65t24-46 61-30q-41-8-60-26t-24-43-5-63q0-44 7-88t24-121q14-63 21-107t8-84q0-50-25-77z" glyph-name="braceright" unicode="}"/><glyph d="M411 691l7 9 20 32q17 33 34 51t49 18q26 0 56-12t84-40q65-34 113-52t98-19q49 0 89 25t63 69 24 100q0 18-14 27t-36 9q-15 0-25-10t-25-32q-22-33-43-50t-59-18q-15 0-35 9t-57 30q-67 39-126 62t-127 23q-41 0-75-25t-55-70-21-100q0-18 14-27t36-9q11 0 18 9z" glyph-name="asciitilde" unicode="~"/><glyph glyph-name="uni00A0"/><glyph d="M519 729l29-28 72-29q43 0 72 28t30 72q0 43-29 72t-73 30q-43 0-72-29t-29-73q0-43 29-71zM651-322l17 18 17 66q0 78-5 159t-16 192q-11 134-16 211t-5 161q0 19-6 27t-18 9q-12 0-18-8t-6-28q0-83-5-167t-15-206Q565-9 560-85t-5-153q0-47 17-65t47-19q32 0 49 18z" glyph-name="exclamdown" unicode="¡"/><glyph d="M958 188l10-10 10-31q0-22-18-42-48-52-133-83T660-16v-173q0-24-5-35t-21-12q-17 0-22 10t-5 36v173q-127 5-222 57T236 186t-53 221q0 119 56 209t152 140 216 56v139q0 21 5 30t22 9q17 0 21-7t5-27V813q148-5 233-65t86-184q0-36-15-58t-45-22q-29 0-40 36t-21 125l-5 41q-88 43-193 45V66q76 4 131 29t111 77q17 16 41 16 15 0 25-10zm-679 55l88-86 240-92v665q-156-11-242-96t-86-227q0-164 88-250z" glyph-name="cent" unicode="¢"/><glyph d="M441-16l50 22 96 66q75-49 128-69t133-20q91 0 145 18t54 81q0 21-16 39t-36 18q-25 0-44-15t-43-41q-12-15-20-22t-16-8q-71 0-122 15t-106 60q30 60 30 135 0 78-27 151t-70 150q-23 44-26 54h205q11 0 18 12t7 27q0 15-6 26t-18 12H522q-30 64-47 118t-17 110q0 66 28 110t72 66 93 22q43 0 72-15t47-35 34-50q15-25 23-34t22-10q34 0 59 21t25 55q0 18-4 26t-18 25q-39 47-101 63t-161 17q-79 0-147-33t-108-93-41-137q0-49 12-86t39-90q19-41 23-50H285q-11 0-17-10t-6-27q0-16 7-28t18-12h169q39-49 68-119t46-143 16-127q0-45-12-68-44 46-92 68t-92 22q-60 0-100-34t-40-87q0-67 41-106t104-40q46 0 96 22zM329 128q2 25 19 44t48 19q57 0 135-75-67-68-127-68-34 0-54 21t-21 53v6z" glyph-name="sterling" unicode="£"/><glyph d="M703 313l65 49 89-89q12-12 25-12 12 0 20 9t9 21q0 13-11 24l-90 90q26 33 39 74t14 84q0 87-46 152l84 84q11 11 11 25 0 12-9 21t-21 9q-13 0-24-11l-84-83q-64 51-158 51-92 0-159-51l-85 85q-11 11-25 11-12 0-21-8t-9-21q0-13 11-24l86-86q-26-33-39-74t-14-85q0-44 13-85t40-73l-86-86q-11-11-11-24 0-12 9-21t21-9q13 0 24 11l88 87q63-45 152-45 92 0 157 49zM430 645l47 55 138 56q90 0 138-55t48-141q0-84-48-138t-137-54q-58 0-100 25t-64 70-22 97q0 85 47 140z" glyph-name="currency" unicode="¤"/><glyph d="M1012 1095h55q23 0 36 11t13 26q0 16-13 27t-38 12H804q-23 0-37-11t-14-27q0-15 13-26t37-12h111L646 633l-276 462h136q23 0 36 11t14 27q0 15-13 26t-38 12H175q-23 0-37-11t-14-27q0-15 13-26t37-12h84l320-517H318q-39 0-39-36t39-36h275V369H318q-39 0-39-36t39-36h275V86H332q-23 0-36-12t-14-30q0-18 14-31t38-13h585q23 0 36 13t14 31q0 17-12 29t-36 13H689v211h267q39 0 39 36t-39 36H689v137h267q39 0 39 36t-39 36H707l305 517z" glyph-name="yen" unicode="¥"/><glyph d="M664 1187l-13 8-30 8q-18 0-31-8t-13-23V704q0-11 13-18t31-7q17 0 30 7t13 18v468q0 15-13 23zm0-760l-13 8-30 8q-18 0-31-8t-13-23V-56q0-12 13-18t31-7q17 0 30 6t13 19v468q0 15-13 23z" glyph-name="brokenbar" unicode="¦"/><glyph d="M456 807l-24-49-24-107q0-53 21-97t59-89q30-36 81-87 46-48 73-78t48-66q22-38 22-82 0-42-32-69t-79-27q-44 0-74 22t-46 62q-5 14-17 22t-29 9q-18 0-29-11t-12-29q0-44 32-77t81-52 100-19q57 0 101 23t70 66 26 96q0 47-19 90t-51 88q43 20 67 69t24 107q0 53-21 96t-58 89q-29 35-79 85-47 48-74 79t-49 68q-23 38-23 81 0 42 32 69t78 28q44 0 75-22t47-62q5-14 17-22t30-9q18 0 29 10t11 29q0 44-32 78t-81 52-100 19q-56 0-101-23t-72-66-26-96q0-48 20-91t52-87q-44-20-68-69zm280-287v-36q0-26-10-52t-28-41q-16 19-29 34t-25 28q-46 50-74 85t-50 75q-22 39-22 77 0 26 10 51t28 41q19-24 59-68t68-80 50-74q23-40 23-76z" glyph-name="section" unicode="§"/><glyph d="M449 1026l24-24 59-24q35 0 58 24t24 58q0 35-24 59t-58 24q-34 0-58-24t-25-59q0-34 24-58zm335 0l24-24 59-24q35 0 58 24t24 58q0 35-24 59t-58 24q-34 0-58-24t-25-59q0-34 24-58z" glyph-name="dieresis" unicode="¨"/><glyph d="M440 1158l-128-68-196-198-68-311q0-180 67-307T311 80t309-67q180 0 308 66t197 194 68 308q0 181-68 310t-196 198-309 69q-180 0-308-68zm420-69l126-132 127-374q0-240-126-370T620 83q-241 0-366 129T128 583q0 159 56 272t166 174 270 60q240 0 366-132zm64-628l-9 7-21 8q-19 0-28-20-31-76-91-117t-148-41q-74 0-131 35t-90 102-33 162q0 81 32 146t90 103 136 38q84 0 137-37t77-117q8-27 30-27 11 0 19 7t9 20v178q0 14-9 22t-21 8q-12 0-21-8t-10-21v-70q-25 46-82 76t-129 31q-95 0-172-45T338 776t-45-180q0-110 42-192t118-127 174-45q79 0 142 31t103 80 51 100l1 6q0 12-9 19z" glyph-name="copyright" unicode="©"/><glyph d="M734 582l-47-3q-110-7-174-18t-108-47-44-106q0-69 42-110t117-42q69 0 127 25t92 62q7-48 30-64t59-17q29 0 56 13t50 36q7 7 7 17 0 11-7 19t-18 9q-9 0-16-8-11-12-30-22t-37-11q-35 0-35 41v209q0 82-17 135t-61 83-120 29q-68 0-120-18t-82-50-29-73q0-21 10-34t29-14q22 0 32 26t12 78q35 16 70 23t77 7q75 0 105-41t30-120v-14zm-35-226l-56-22-116-23q-46 0-73 23t-28 74q0 47 31 71t86 33 163 21l28 3V394q-35-38-91-60z" glyph-name="ordfeminine" unicode="ª"/><glyph d="M608 202l11 10 11 26q0 26-31 49L269 531l321 246q24 18 24 39 0 15-11 25t-29 11q-14 0-30-11L210 586q-38-29-38-56 0-26 38-55l344-259q18-14 38-14 16 0 27 10zm364 0l11 10 11 26q0 26-31 49L633 531l321 246q24 18 24 39 0 15-11 25t-29 11q-14 0-30-11L574 586q-38-29-38-56 0-26 38-55l344-259q18-14 38-14 16 0 27 10z" glyph-name="guillemotleft" unicode="«"/><glyph d="M252 484l12-12 37-12h520V210q0-25 14-38t33-14q20 0 35 15t15 41v274q0 28-15 43t-45 15H301q-24 0-36-13t-13-31q0-18 12-30z" glyph-name="logicalnot" unicode="¬"/><glyph d="M324 533l-12-12-12-31q0-17 12-30t33-13h550q21 0 33 13t12 30q0 18-12 30t-33 13H345q-21 0-33-12z" glyph-name="uni00AD" unicode="­"/><glyph d="M440 1158l-128-68-196-198-68-311q0-180 67-307T311 80t309-67q180 0 308 66t197 194 68 308q0 181-68 310t-196 198-309 69q-180 0-308-68zm420-69l126-132 127-374q0-240-126-370T620 83q-241 0-366 129T128 583q0 159 56 272t166 174 270 60q240 0 366-132zM514 301v264h47q21 0 63 3t47 6l88-273h-29q-13 0-20-8t-7-19q0-11 7-20t22-9h147q19 0 27 9t9 20q0 11-8 19t-29 8h-37L737 587q49 19 81 59t33 103q0 77-33 118t-91 55-149 15H396q-14 0-21-9t-8-21q0-11 7-20t21-9h48V301h-64q-13 0-20-8t-8-20q0-10 8-19t21-9h225q13 0 20 9t8 19q0 11-7 19t-21 9h-91zm50 577q77 0 121-9t69-37 25-87q0-55-29-81t-70-32-107-8l-59-1v255h50z" glyph-name="registered" unicode="®"/><glyph d="M930 1097l-12 11-37 11H520q-50 0-50-43 0-21 12-32t39-11h362q47 0 47 43 0 21-12 32z" glyph-name="overscore" unicode="¯"/><glyph d="M448 804l28-56 86-90 136-35q79 0 136 35t87 93 29 122q0 65-28 121t-84 92-135 35q-80 0-137-36t-88-94-30-123q0-64 28-120zm112 132l36 44 106 44q69 0 106-44t37-110q0-65-35-108t-103-43q-45 0-78 20t-51 55-18 76q0 66 36 110z" glyph-name="degree" unicode="°"/><glyph d="M669 804q0 25-14 38t-34 14q-20 0-34-13t-14-39V558H316q-22 0-32-12t-11-29q0-18 10-29t33-12h257V235q0-25 14-38t34-14q20 0 34 13t14 39v241h255q23 0 33 11t10 30q0 17-10 29t-33 12H669v246zM273 23l10-11 33-12h608q22 0 32 11t11 30q0 17-10 29t-33 12H316q-23 0-33-12t-10-29q0-18 10-29z" glyph-name="plusminus" unicode="±"/><glyph d="M555 1187l-43-18-71-55-27-89q0-28 9-45t27-18q18 0 24 24t13 90q0 7 2 25 58 32 120 32t101-34 40-98q0-34-18-67t-46-63-77-76q-61-57-99-99t-64-97-27-115q0-11 4-29h382q14 0 23 10t9 30v124q0 20-7 30t-20 10q-12 0-21-9t-10-26l-7-104H491q15 64 56 114t113 116q55 51 86 85t53 77 22 95q0 57-31 97t-80 62-104 21q-51 0-94-18z" glyph-name="uni00B2" unicode="²"/><glyph d="M708 796l45-42 45-117q0-56-25-100t-71-70-108-25q-43 0-66 7t-45 22q-15 10-26 14t-28 5q-12 0-20-8t-9-17q0-22 28-42t74-32 90-13q76 0 139 33t100 91 37 131q0 92-55 150t-154 62q164 80 164 187 0 72-52 113t-131 42q-38 0-88-12t-86-36-36-55q0-10 8-17t22-8q20 0 30 5t22 19q18 19 43 30t83 11q57 0 86-26t29-66q0-32-18-57t-46-46-83-52l-48-29q-22-13-22-30 0-13 7-20t21-8l23 2q28 4 44 4 77 0 122-42z" glyph-name="uni00B3" unicode="³"/><glyph d="M872 1265l-19 20-43 20q-17 0-31-14l-271-276q-7-7-7-15 0-9 7-15t17-7q7 0 11 4l322 234q14 10 14 28 0 21-19 41z" glyph-name="acute" unicode="´"/><glyph d="M366 768q0 14-9 24t-25 10q-4 0-12-2l-175-35q-18-4-27-14t-9-24q0-17 13-30t33-13q11 0 17 2l98 20v-962q0-41 15-64t42-23q24 0 42 16t18 49q0 5-2 21-11 61-48 328 38-42 95-65t129-23q94 0 181 43t131 108l5-87q1-25 14-37t33-13h7l186 20q18 4 28 16t10 28q0 15-10 25t-30 10h-6L962 85v683q0 14-9 24t-25 10q-4 0-12-2l-174-35q-19-4-28-14t-10-25q0-17 13-30t34-13q9 0 18 3l97 20V231q-22-46-71-84T683 87 562 65q-97 0-146 53t-50 141v509z" glyph-name="uni00B5" unicode="µ"/><glyph d="M448 1171l-72-37-108-99-36-132q0-74 37-141t107-109 164-42V82H331q-19 0-29-11t-10-28q0-17 11-30t30-13h738q19 0 30 13t11 30q0 16-10 27t-29 12H892l-2 1089H554q-106 0-178-37zm188-82h158V82H636v1007z" glyph-name="paragraph" unicode="¶"/><glyph d="M616 563l24-24 59-24q35 0 58 24t24 58q0 35-24 59t-58 24q-34 0-58-24t-25-59q0-34 24-58z" glyph-name="middot" unicode="·"/><glyph d="M36-306q-8-24-8-41 0-25 13-39t36-15q22 0 39 19t23 61L180 0h-37L36-306z" glyph-name="cedilla" unicode="¸"/><glyph d="M620 1174l-6-3-173-76q-17-7-17-25 0-12 8-22t21-10q6 0 12 3l124 55V455H465q-14 0-22-9t-9-20q0-12 9-21t25-9h295q14 0 21 8t8 21q0 12-7 21t-21 9H658v685q0 17-8 25t-22 9q-8 0-14-3z" glyph-name="uni00B9" unicode="¹"/><glyph d="M977 337l-34 62-97 96-144 34q-83 0-147-33t-99-96-35-145q0-83 35-145t99-96 147-34q82 0 144 34t96 96 35 145q0 82-34 144zm-99-169l-46-55-130-56q-85 0-132 54t-48 144q0 88 47 142t133 54q83 0 129-54t47-142q0-87-46-142z" glyph-name="ordmasculine" unicode="º"/><glyph d="M216 845l-11-10-11-26q0-26 31-49l330-244-321-246q-24-18-24-39 0-15 11-25t29-11q14 0 30 11l334 255q38 29 38 56 0 26-38 55L270 831q-18 14-38 14-16 0-27-10zm364 0l-11-10-11-26q0-26 31-49l330-244-321-246q-24-18-24-39 0-15 11-25t29-11q14 0 30 11l334 255q38 29 38 56 0 26-38 55L634 831q-18 14-38 14-16 0-27-10z" glyph-name="guillemotright" unicode="»"/><glyph d="M231 1119l-6-3-174-76q-17-7-17-25 0-12 9-22t21-11q6 0 12 3l123 56V399H75q-14 0-22-8t-8-20q0-12 8-21t25-10h296q14 0 21 9t8 21q0 12-7 20t-21 9H269v686q0 17-8 25t-22 9q-8 0-14-3zM319 52l10-9 25-9q17 0 28 18l610 1018q4 8 4 16 0 13-10 21t-25 8q-18 0-27-16L322 79q-3-5-3-14 0-13 10-22zm854-51l7 9 8 23q0 12-7 21t-21 9h-124v182h117q14 0 21 8t8 20q0 11-7 19t-20 9h-119v461q0 23-9 32t-22 10q-9 0-17-3t-11-7L668 301q-8-13-8-22 0-13 9-23t21-11h271V63H785q-12 0-19-9t-7-22q0-13 7-22t20-9h373q14 0 21 9zM961 301H743l218 366V301z" glyph-name="onequarter" unicode="¼"/><glyph d="M231 1119l-6-3-174-76q-17-7-17-25 0-12 9-22t21-11q6 0 12 3l123 56V399H75q-14 0-22-8t-8-20q0-12 8-21t25-10h296q14 0 21 9t8 21q0 12-7 20t-21 9H269v686q0 17-8 25t-22 9q-8 0-14-3zM292 52l10-9 25-9q17 0 28 18l610 1018q4 8 4 16 0 13-10 21t-25 8q-18 0-27-16L295 79q-3-5-3-14 0-13 10-22zm609 680l-43-18-71-55-27-89q0-28 9-45t27-18q18 0 24 24t13 90q0 7 2 25 60 33 120 33 62 0 101-35t40-98q0-34-18-67t-46-63-77-76q-61-57-99-99t-64-97-27-115q0-11 4-29h382q14 0 23 10t9 30v124q0 20-7 30t-20 10q-12 0-21-9t-10-26l-7-104H837q15 64 56 114t113 116q55 51 86 85t53 77 22 95q0 57-31 97t-80 62-104 21q-51 0-94-18z" glyph-name="onehalf" unicode="½"/><glyph d="M324 731l44-42 45-117q0-56-24-100t-71-70-108-25q-43 0-66 7t-45 22q-15 10-26 14t-28 5q-12 0-20-8t-9-17q0-22 28-42t74-32 90-13q76 0 139 33t100 91 37 131q0 92-55 150t-154 62q164 80 164 187 0 72-52 113t-131 42q-38 0-88-12t-86-36-36-55q0-10 8-17t22-8q20 0 30 5t22 19q17 20 42 30t84 11q57 0 85-26t29-66q0-33-18-58t-46-46-83-52l-47-28q-22-13-22-30 0-13 7-20t21-8l23 2q28 4 44 4 77 0 121-42zm14-679l10-9 25-9q17 0 28 18l610 1018q4 8 4 16 0 13-10 21t-25 8q-18 0-27-16L341 79q-3-5-3-14 0-13 10-22zm859-51l7 9 8 23q0 12-7 21t-21 9h-124v182h117q14 0 21 8t8 20q0 11-7 19t-20 9h-119v461q0 23-9 32t-22 10q-9 0-17-3t-11-7L692 301q-8-13-8-22 0-13 9-23t21-11h271V63H809q-12 0-19-9t-7-22q0-13 7-22t20-9h373q14 0 21 9zM985 301H767l218 366V301z" glyph-name="threequarters" unicode="¾"/><glyph d="M555 976l29-28 72-29q43 0 72 29t30 72q0 43-29 72t-73 30q-43 0-72-30t-29-73q0-43 29-71zM713-75l61 26 96 75 35 116q0 35-12 57t-37 23q-28 0-42-23t-20-56-8-86l-2-26q-38-17-74-23t-75-6q-66 0-115 25t-75 70-27 104q0 19 3 38 7 49 27 89t46 69 68 73q45 45 71 77t45 75 18 98q0 28-6 41t-28 14q-19 0-25-13t-7-43q0-38-18-71t-47-62-76-70q-60-52-98-92t-64-95-27-122q0-91 42-154t118-96 172-32q81 0 142 26z" glyph-name="questiondown" unicode="¿"/><glyph d="M669 1506l-158 136q-11 10-28 10-22 0-40-18t-18-39q0-18 19-31l79-50q185-116 261-160 4-4 12-4 13 0 23 11t10 24q0 15-10 21-150 100-308 236zM462 0l13 12 14 31q0 17-13 30t-37 13H280l112 306h483L982 86H796q-23 0-36-12t-13-30q0-18 13-31t38-13h366q23 0 36 13t14 31q0 17-12 29t-36 13h-79L725 1106q-23 65-81 65H341q-23 0-36-13t-13-30q0-18 13-30t37-13h217L174 86H89q-23 0-36-13T40 43q0-18 13-30T90 0h348q24 0 37 12zm184 1072l199-597H425l221 597z" glyph-name="Agrave" unicode="À"/><glyph d="M812 1637l-19 20-43 20q-17 0-31-14l-271-276q-7-7-7-15 0-9 7-15t17-7q7 0 11 4l322 234q14 10 14 28 0 21-19 41zM462 0l13 12 14 31q0 17-13 30t-37 13H280l112 306h483L982 86H796q-23 0-36-12t-13-30q0-18 13-31t38-13h366q23 0 36 13t14 31q0 17-12 29t-36 13h-79L725 1106q-23 65-81 65H341q-23 0-36-13t-13-30q0-18 13-30t37-13h217L174 86H89q-23 0-36-13T40 43q0-18 13-30T90 0h348q24 0 37 12zm184 1072l199-597H425l221 597z" glyph-name="Aacute" unicode="Á"/><glyph d="M412 1396q-7-7-7-17 0-12 11-20t26-9q17 0 23 9l162 209 163-209q6-9 23-9 14 0 25 8t12 21q0 10-7 17l-184 283q-4 6-13 9t-19 3q-24 0-31-12l-184-283zM462 0l13 12 14 31q0 17-13 30t-37 13H280l112 306h483L982 86H796q-23 0-36-12t-13-30q0-18 13-31t38-13h366q23 0 36 13t14 31q0 17-12 29t-36 13h-79L725 1106q-23 65-81 65H341q-23 0-36-13t-13-30q0-18 13-30t37-13h217L174 86H89q-23 0-36-13T40 43q0-18 13-30T90 0h348q24 0 37 12zm184 1072l199-597H425l221 597z" glyph-name="Acircumflex" unicode="Â"/><glyph d="M376 1385l13-8 28-9q16 0 22 12 14 34 29 51t34 17q6 0 9-1 26-6 90-40 40-20 68-33t56-20q18-4 27-4 78 0 126 125 3 14-14 26t-34 12q-13 0-17-8l-15-30q-11-22-24-34t-26-12q-14 0-38 11t-65 32q-8 4-37 18t-52 24-40 12q-12 2-16 2-29 0-58-20t-47-52-19-60q0-11 13-19zM462 0l13 12 14 31q0 17-13 30t-37 13H280l112 306h483L982 86H796q-23 0-36-12t-13-30q0-18 13-31t38-13h366q23 0 36 13t14 31q0 17-12 29t-36 13h-79L725 1106q-23 65-81 65H341q-23 0-36-13t-13-30q0-18 13-30t37-13h217L174 86H89q-23 0-36-13T40 43q0-18 13-30T90 0h348q24 0 37 12zm184 1072l199-597H425l221 597z" glyph-name="Atilde" unicode="Ã"/><glyph d="M377 1357l24-24 59-24q35 0 58 24t24 58q0 35-24 59t-58 24q-34 0-58-24t-25-59q0-34 24-58zm335 0l24-24 59-24q35 0 58 24t24 58q0 35-24 59t-58 24q-34 0-58-24t-25-59q0-34 24-58zM462 0l13 12 14 31q0 17-13 30t-37 13H280l112 306h483L982 86H796q-23 0-36-12t-13-30q0-18 13-31t38-13h366q23 0 36 13t14 31q0 17-12 29t-36 13h-79L725 1106q-23 65-81 65H341q-23 0-36-13t-13-30q0-18 13-30t37-13h217L174 86H89q-23 0-36-13T40 43q0-18 13-30T90 0h348q24 0 37 12zm184 1072l199-597H425l221 597z" glyph-name="Adieresis" unicode="Ä"/><glyph d="M456 1301l20-38 58-63 93-24q54 0 93 24t59 64 20 83q0 44-19 82t-58 63-92 24q-55 0-94-24t-59-64-21-84q0-43 20-81zm76 89l25 30 72 30q46 0 71-30t26-75q0-45-24-74t-70-30q-46 0-73 30t-27 74q0 45 25 75zM462 0l13 12 14 31q0 17-13 30t-37 13H280l112 306h483L982 86H796q-23 0-36-12t-13-30q0-18 13-31t38-13h366q23 0 36 13t14 31q0 17-12 29t-36 13h-79L725 1106q-23 65-81 65H341q-23 0-36-13t-13-30q0-18 13-30t37-13h217L174 86H89q-23 0-36-13T40 43q0-18 13-30T90 0h348q24 0 37 12zm184 1072l199-597H425l221 597z" glyph-name="Aring" unicode="Å"/><glyph d="M421 0l13 12 14 31q0 17-13 30t-37 13H231l96 306h315V85h-30q-23 0-36-12t-14-30q0-17 13-30t38-13h446q25 0 40 14t16 39v230q0 25-12 38t-30 14q-16 0-28-11t-13-28l-16-211H729v475h142l13-108q1-20 13-31t27-12q16 0 27 13t11 38v272q0 26-11 39t-27 14q-15 0-26-12t-14-33l-13-103H729v448h284l14-198q1-18 12-28t27-10q16 0 28 11t12 33v224q0 25-15 39t-41 15H300q-23 0-36-13t-13-30q0-18 13-30t37-13h162L138 86H87q-23 0-36-13T38 43q0-18 13-30T88 0h309q24 0 37 12zm-67 475l191 610h97V475H354z" glyph-name="AE" unicode="Æ"/><glyph d="M1110 387l18-13 18-31q0-5-1-7-20-90-79-170T907 34 669-17h-13l-39-308q-5-42-22-61t-40-19q-23 0-36 14t-13 40q0 17 8 41L617-15Q476-2 366 78T194 294t-62 313q0 170 69 302t192 205 275 73q78 0 149-22t124-62 81-88v106q0 23 14 36t35 14q20 0 34-13t15-38V827q0-23-13-35t-33-12q-18 0-31 12t-17 35q-15 81-65 143t-126 96-164 35q-135 0-235-64T282 859t-54-259q0-163 60-283t162-184 220-64q142 0 240 77t139 213q10 28 40 28 21 0 39-13z" glyph-name="Ccedilla" unicode="Ç"/><glyph d="M662 1506l-158 136q-11 10-28 10-22 0-40-18t-18-39q0-18 19-31l79-50q185-116 261-160 4-4 12-4 13 0 23 11t10 24q0 15-10 21-150 100-308 236zm175-701l-11 13-27 14q-15 0-26-12t-14-33l-13-133H420v431h609l14-244q1-18 13-28t29-10q16 0 28 11t12 33v270q0 25-15 39t-41 15H191q-23 0-36-13t-14-31q0-17 12-29t36-13h135V85H154q-23 0-36-12t-14-30q0-17 13-30t38-13h926q25 0 40 14t16 39v270q0 25-12 38t-30 14q-17 0-30-11t-14-28l-16-251H420v492h326l13-148q1-20 13-31t27-12q16 0 27 13t11 38v342q0 26-11 39z" glyph-name="Egrave" unicode="È"/><glyph d="M806 1637l-19 20-43 20q-17 0-31-14l-271-276q-7-7-7-15 0-9 7-15t17-7q7 0 11 4l322 234q14 10 14 28 0 21-19 41zm31-832l-11 13-27 14q-15 0-26-12t-14-33l-13-133H420v431h609l14-244q1-18 13-28t29-10q16 0 28 11t12 33v270q0 25-15 39t-41 15H191q-23 0-36-13t-14-31q0-17 12-29t36-13h135V85H154q-23 0-36-12t-14-30q0-17 13-30t38-13h926q25 0 40 14t16 39v270q0 25-12 38t-30 14q-17 0-30-11t-14-28l-16-251H420v492h326l13-148q1-20 13-31t27-12q16 0 27 13t11 38v342q0 26-11 39z" glyph-name="Eacute" unicode="É"/><glyph d="M405 1396q-7-7-7-17 0-12 11-20t26-9q17 0 23 9l162 209 163-209q6-9 23-9 14 0 25 8t12 21q0 10-7 17l-184 283q-4 6-13 9t-19 3q-24 0-31-12l-184-283zm432-591l-11 13-27 14q-15 0-26-12t-14-33l-13-133H420v431h609l14-244q1-18 13-28t29-10q16 0 28 11t12 33v270q0 25-15 39t-41 15H191q-23 0-36-13t-14-31q0-17 12-29t36-13h135V85H154q-23 0-36-12t-14-30q0-17 13-30t38-13h926q25 0 40 14t16 39v270q0 25-12 38t-30 14q-17 0-30-11t-14-28l-16-251H420v492h326l13-148q1-20 13-31t27-12q16 0 27 13t11 38v342q0 26-11 39z" glyph-name="Ecircumflex" unicode="Ê"/><glyph d="M371 1357l24-24 59-24q35 0 58 24t24 58q0 35-24 59t-58 24q-34 0-58-24t-25-59q0-34 24-58zm335 0l24-24 59-24q35 0 58 24t24 58q0 35-24 59t-58 24q-34 0-58-24t-25-59q0-34 24-58zm131-552l-11 13-27 14q-15 0-26-12t-14-33l-13-133H420v431h609l14-244q1-18 13-28t29-10q16 0 28 11t12 33v270q0 25-15 39t-41 15H191q-23 0-36-13t-14-31q0-17 12-29t36-13h135V85H154q-23 0-36-12t-14-30q0-17 13-30t38-13h926q25 0 40 14t16 39v270q0 25-12 38t-30 14q-17 0-30-11t-14-28l-16-251H420v492h326l13-148q1-20 13-31t27-12q16 0 27 13t11 38v342q0 26-11 39z" glyph-name="Edieresis" unicode="Ë"/><glyph d="M694 1506l-158 136q-11 10-28 10-22 0-40-18t-18-39q0-18 19-31l79-50q185-116 261-160 4-4 12-4 13 0 23 11t10 24q0 15-10 21-150 100-308 236zM1019 0l13 12 13 31q0 17-13 30t-36 13H710v999h286q23 0 36 12t13 30q0 18-13 31t-37 13H310q-24 0-37-13t-14-31q0-17 13-29t37-13h305V86H309q-23 0-36-13t-14-30q0-18 13-30t38-13h685q24 0 37 12z" glyph-name="Igrave" unicode="Ì"/><glyph d="M837 1637l-19 20-43 20q-17 0-31-14l-271-276q-7-7-7-15 0-9 7-15t17-7q7 0 11 4l322 234q14 10 14 28 0 21-19 41zM1019 0l13 12 13 31q0 17-13 30t-36 13H710v999h286q23 0 36 12t13 30q0 18-13 31t-37 13H310q-24 0-37-13t-14-31q0-17 13-29t37-13h305V86H309q-23 0-36-13t-14-30q0-18 13-30t38-13h685q24 0 37 12z" glyph-name="Iacute" unicode="Í"/><glyph d="M436 1396q-7-7-7-17 0-12 11-20t26-9q17 0 23 9l162 209 163-209q6-9 23-9 14 0 25 8t12 21q0 10-7 17l-184 283q-4 6-13 9t-19 3q-24 0-31-12l-184-283zM1019 0l13 12 13 31q0 17-13 30t-36 13H710v999h286q23 0 36 12t13 30q0 18-13 31t-37 13H310q-24 0-37-13t-14-31q0-17 13-29t37-13h305V86H309q-23 0-36-13t-14-30q0-18 13-30t38-13h685q24 0 37 12z" glyph-name="Icircumflex" unicode="Î"/><glyph d="M402 1357l24-24 59-24q35 0 58 24t24 58q0 35-24 59t-58 24q-34 0-58-24t-25-59q0-34 24-58zm335 0l24-24 59-24q35 0 58 24t24 58q0 35-24 59t-58 24q-34 0-58-24t-25-59q0-34 24-58zM1019 0l13 12 13 31q0 17-13 30t-36 13H710v999h286q23 0 36 12t13 30q0 18-13 31t-37 13H310q-24 0-37-13t-14-31q0-17 13-29t37-13h305V86H309q-23 0-36-13t-14-30q0-18 13-30t38-13h685q24 0 37 12z" glyph-name="Idieresis" unicode="Ï"/><glyph d="M314 86H151q-23 0-36-13t-14-30q0-18 13-30t38-13h361q280 0 425 141t146 450q0 292-151 436t-418 144H157q-23 0-36-13t-14-31q0-17 12-29t36-13h159V648H168q-42 0-42-37 0-39 46-39h142V86zm106 0v486h185q41 0 41 39 0 17-8 27t-31 10H420v437h114q218 0 331-127t113-367q0-171-46-282T785 142 520 86H420z" glyph-name="Eth" unicode="Ð"/><glyph d="M380 1385l13-8 28-9q16 0 22 12 14 34 29 51t34 17q6 0 9-1 26-6 90-40 40-20 68-33t56-20q18-4 27-4 78 0 126 125 3 14-14 26t-34 12q-13 0-17-8l-15-30q-11-22-24-34t-26-12q-14 0-38 11t-65 32q-8 4-37 18t-52 24-40 12q-12 2-16 2-29 0-58-20t-47-52-19-60q0-11 13-19zM285 86H159q-23 0-36-13t-13-30q0-18 13-30t37-13h358q24 0 37 12t13 31q0 17-13 30t-36 13H381v998L934 22q9-18 24-28t32-10q21 0 35 16t14 47v1038h96q23 0 35 12t13 30q0 18-13 31t-37 13H796q-24 0-37-13t-14-31q0-17 13-29t36-13h149V194l-486 953q-6 13-15 18t-25 6H130q-23 0-36-13t-14-31q0-17 13-29t36-13h156V86z" glyph-name="Ntilde" unicode="Ñ"/><glyph d="M662 1506l-158 136q-11 10-28 10-22 0-40-18t-18-39q0-18 19-31l79-50q185-116 261-160 4-4 12-4 13 0 23 11t10 24q0 15-10 21-150 100-308 236zm470-768l-58 138-175 225-279 86q-163 0-279-86T167 877t-59-295q0-156 58-293T341 68t279-85q163 0 279 84t174 222 59 293q0 156-58 294zm-96-289l-47-117-141-190-228-73q-134 0-228 72T251 331t-47 251q0 135 48 253t142 192 226 74q132 0 226-73t142-192 48-254q0-133-47-250z" glyph-name="Ograve" unicode="Ò"/><glyph d="M805 1637l-19 20-43 20q-17 0-31-14l-271-276q-7-7-7-15 0-9 7-15t17-7q7 0 11 4l322 234q14 10 14 28 0 21-19 41zm327-899l-58 138-175 225-279 86q-163 0-279-86T167 877t-59-295q0-156 58-293T341 68t279-85q163 0 279 84t174 222 59 293q0 156-58 294zm-96-289l-47-117-141-190-228-73q-134 0-228 72T251 331t-47 251q0 135 48 253t142 192 226 74q132 0 226-73t142-192 48-254q0-133-47-250z" glyph-name="Oacute" unicode="Ó"/><glyph d="M404 1396q-7-7-7-17 0-12 11-20t26-9q17 0 23 9l162 209 163-209q6-9 23-9 14 0 25 8t12 21q0 10-7 17l-184 283q-4 6-13 9t-19 3q-24 0-31-12l-184-283zm728-658l-58 138-175 225-279 86q-163 0-279-86T167 877t-59-295q0-156 58-293T341 68t279-85q163 0 279 84t174 222 59 293q0 156-58 294zm-96-289l-47-117-141-190-228-73q-134 0-228 72T251 331t-47 251q0 135 48 253t142 192 226 74q132 0 226-73t142-192 48-254q0-133-47-250z" glyph-name="Ocircumflex" unicode="Ô"/><glyph d="M369 1385l13-8 28-9q16 0 22 12 14 34 29 51t34 17q6 0 9-1 26-6 90-40 40-20 68-33t56-20q18-4 27-4 78 0 126 125 3 14-14 26t-34 12q-13 0-17-8l-15-30q-11-22-24-34t-26-12q-14 0-38 11t-65 32q-8 4-37 18t-52 24-40 12q-12 2-16 2-29 0-58-20t-47-52-19-60q0-11 13-19zm763-647l-58 138-175 225-279 86q-163 0-279-86T167 877t-59-295q0-156 58-293T341 68t279-85q163 0 279 84t174 222 59 293q0 156-58 294zm-96-289l-47-117-141-190-228-73q-134 0-228 72T251 331t-47 251q0 135 48 253t142 192 226 74q132 0 226-73t142-192 48-254q0-133-47-250z" glyph-name="Otilde" unicode="Õ"/><glyph d="M369 1398l24-24 59-24q35 0 58 24t24 58q0 35-24 59t-58 24q-34 0-58-24t-25-59q0-34 24-58zm335 0l24-24 59-24q35 0 58 24t24 58q0 35-24 59t-58 24q-34 0-58-24t-25-59q0-34 24-58zm428-660l-58 138-175 225-279 86q-163 0-279-86T167 877t-59-295q0-156 58-293T341 68t279-85q163 0 279 84t174 222 59 293q0 156-58 294zm-96-289l-47-117-141-190-228-73q-134 0-228 72T251 331t-47 251q0 135 48 253t142 192 226 74q132 0 226-73t142-192 48-254q0-133-47-250z" glyph-name="Odieresis" unicode="Ö"/><glyph d="M699 558L516 742q-15 15-36 15-20 0-35-15t-15-35q0-21 15-36l183-183-183-185q-15-15-15-35t15-35 35-15q21 0 36 15l183 184 184-184q15-15 36-15 20 0 35 15t15 35q0 20-15 35L770 488l184 183q15 15 15 36 0 20-15 35t-35 15q-21 0-36-15L699 558z" glyph-name="multiply" unicode="×"/><glyph d="M1029 991l51-131 52-278q0-156-58-293T899 68 620-17q-121 0-221 50L295-172q-9-20-30-20-15 0-27 10t-12 24q0 6 3 12L339 69q-112 80-171 218t-60 295q0 156 58 294t175 225 279 86q143 0 256-70l96 188q9 16 27 16 14 0 26-9t12-23q0-8-4-15l-101-199q97-84 148-215zM204 452l45-115 132-186 453 885q-92 65-214 65-132 0-226-73T252 836t-48-254q0-130 45-245zM754 69l94 72 141 190 47 251q0 119-38 227T888 991L440 112q78-43 180-43 134 0 228 72z" glyph-name="Oslash" unicode="Ø"/><glyph d="M691 1506l-158 136q-11 10-28 10-22 0-40-18t-18-39q0-18 19-31l79-50q185-116 261-160 4-4 12-4 13 0 23 11t10 24q0 15-10 21-150 100-308 236zm365-421h118q33 0 51 12t18 30q0 18-18 31t-52 13H840q-24 0-37-13t-14-31q0-17 13-29t37-13h121V411q0-100-38-177T815 113 654 69q-149 0-229 90t-80 254v672h162q23 0 36 12t13 30q0 18-13 31t-37 13H105q-23 0-36-13t-14-31q0-17 13-29t36-13h145V413q0-133 51-230T442 35t212-52q118 0 209 54t142 151 51 223v674z" glyph-name="Ugrave" unicode="Ù"/><glyph d="M834 1637l-19 20-43 20q-17 0-31-14l-271-276q-7-7-7-15 0-9 7-15t17-7q7 0 11 4l322 234q14 10 14 28 0 21-19 41zm222-552h118q33 0 51 12t18 30q0 18-18 31t-52 13H840q-24 0-37-13t-14-31q0-17 13-29t37-13h121V411q0-100-38-177T815 113 654 69q-149 0-229 90t-80 254v672h162q23 0 36 12t13 30q0 18-13 31t-37 13H105q-23 0-36-13t-14-31q0-17 13-29t36-13h145V413q0-133 51-230T442 35t212-52q118 0 209 54t142 151 51 223v674z" glyph-name="Uacute" unicode="Ú"/><glyph d="M434 1396q-7-7-7-17 0-12 11-20t26-9q17 0 23 9l162 209 163-209q6-9 23-9 14 0 25 8t12 21q0 10-7 17l-184 283q-4 6-13 9t-19 3q-24 0-31-12l-184-283zm622-311h118q33 0 51 12t18 30q0 18-18 31t-52 13H840q-24 0-37-13t-14-31q0-17 13-29t37-13h121V411q0-100-38-177T815 113 654 69q-149 0-229 90t-80 254v672h162q23 0 36 12t13 30q0 18-13 31t-37 13H105q-23 0-36-13t-14-31q0-17 13-29t36-13h145V413q0-133 51-230T442 35t212-52q118 0 209 54t142 151 51 223v674z" glyph-name="Ucircumflex" unicode="Û"/><glyph d="M399 1357l24-24 59-24q35 0 58 24t24 58q0 35-24 59t-58 24q-34 0-58-24t-25-59q0-34 24-58zm335 0l24-24 59-24q35 0 58 24t24 58q0 35-24 59t-58 24q-34 0-58-24t-25-59q0-34 24-58zm322-272h118q33 0 51 12t18 30q0 18-18 31t-52 13H840q-24 0-37-13t-14-31q0-17 13-29t37-13h121V411q0-100-38-177T815 113 654 69q-149 0-229 90t-80 254v672h162q23 0 36 12t13 30q0 18-13 31t-37 13H105q-23 0-36-13t-14-31q0-17 13-29t36-13h145V413q0-133 51-230T442 35t212-52q118 0 209 54t142 151 51 223v674z" glyph-name="Udieresis" unicode="Ü"/><glyph d="M805 1637l-19 20-43 20q-17 0-31-14l-271-276q-7-7-7-15 0-9 7-15t17-7q7 0 11 4l322 234q14 10 14 28 0 21-19 41zm-24-466l-14-11-14-27q0-15 13-26t37-12h111L646 633l-276 462h136q23 0 36 11t14 27q0 15-13 26t-38 12H175q-23 0-37-11t-14-27q0-15 13-26t37-12h84l335-542V86H332q-23 0-36-12t-14-30q0-18 14-31t38-13h585q23 0 36 13t14 31q0 17-12 29t-36 13H689v462l323 547h55q23 0 36 11t13 26q0 16-13 27t-38 12H804q-23 0-37-11z" glyph-name="Yacute" unicode="Ý"/><glyph d="M429 1085h163q39 0 39 45 0 19-6 30t-25 11H123q-41 0-41-44 0-42 39-42h212V82H108q-40 0-40-41t41-41h546q40 0 40 41t-39 41H429v236q199 0 327 15t220 82 91 204q0 144-87 211t-214 82-337 16v157zm0-234q218 0 333-19t162-68 47-138q0-97-51-146t-166-69-325-19v459z" glyph-name="Thorn" unicode="Þ"/><glyph d="M463 1188l-94-111-95-377V82H143q-27 0-38-9T94 38q0-21 12-29t39-9h379q26 0 38 8t13 30q0 25-11 34t-38 10H370v624q0 216 66 308t183 92q97 0 156-55t60-153q0-72-39-122t-99-74-118-25q-23 0-35-11t-12-30q0-18 12-31t35-14q99 0 183-27t138-87 54-157q0-115-63-168T724 82q-37-6-49-12t-12-26q0-21 12-33t35-12q9 0 14 1 328 50 328 318 0 145-93 221T725 643q49 14 95 49t77 87 31 115q0 91-43 157t-114 102-157 35q-151 0-245-111z" glyph-name="germandbls" unicode="ß"/><glyph d="M740 1132l-158 136q-11 10-28 10-22 0-40-18t-18-39q0-18 19-31l79-50q185-116 261-160 4-4 12-4 13 0 23 11t10 24q0 15-10 21-150 100-308 236zm74-662l-73-5q-163-11-259-28t-163-70-66-157q0-103 63-164t175-62q104 0 192 37t138 92q12-71 47-95t86-25q45 0 86 19t74 54q10 10 10 25 0 16-11 29t-26 13q-13 0-24-12-17-18-46-33t-55-16q-24 0-38 12t-14 48v312q0 122-26 202t-91 124-181 43q-102 0-181-27t-123-75-44-108q0-32 15-52t45-20q34 0 48 39t18 116q53 24 105 34t116 11q112 0 157-62t46-179v-20zm-54-338l-84-33-174-34q-69 0-110 34t-42 111q0 70 48 106t129 50 246 31l41 4V189q-54-57-138-90z" glyph-name="agrave" unicode="à"/><glyph d="M884 1519l-19 20-43 20q-17 0-31-14l-271-276q-7-7-7-15 0-9 7-15t17-7q7 0 11 4l322 234q14 10 14 28 0 21-19 41zM814 470l-73-5q-163-11-259-28t-163-70-66-157q0-103 63-164t175-62q104 0 192 37t138 92q12-71 47-95t86-25q45 0 86 19t74 54q10 10 10 25 0 16-11 29t-26 13q-13 0-24-12-17-18-46-33t-55-16q-24 0-38 12t-14 48v312q0 122-26 202t-91 124-181 43q-102 0-181-27t-123-75-44-108q0-32 15-52t45-20q34 0 48 39t18 116q53 24 105 34t116 11q112 0 157-62t46-179v-20zm-54-338l-84-33-174-34q-69 0-110 34t-42 111q0 70 48 106t129 50 246 31l41 4V189q-54-57-138-90z" glyph-name="aacute" unicode="á"/><glyph d="M739 1278q-7-7-7-17 0-12 11-20t26-9q17 0 23 9l162 209 163-209q6-9 23-9 14 0 25 8t12 21q0 10-7 17l-184 283q-4 6-13 9t-19 3q-24 0-31-12l-184-283zm75-808l-73-5q-163-11-259-28t-163-70-66-157q0-103 63-164t175-62q104 0 192 37t138 92q12-71 47-95t86-25q45 0 86 19t74 54q10 10 10 25 0 16-11 29t-26 13q-13 0-24-12-17-18-46-33t-55-16q-24 0-38 12t-14 48v312q0 122-26 202t-91 124-181 43q-102 0-181-27t-123-75-44-108q0-32 15-52t45-20q34 0 48 39t18 116q53 24 105 34t116 11q112 0 157-62t46-179v-20zm-54-338l-84-33-174-34q-69 0-110 34t-42 111q0 70 48 106t129 50 246 31l41 4V189q-54-57-138-90z" glyph-name="acircumflex" unicode="â"/><glyph d="M447 1267l13-8 28-9q16 0 22 12 14 34 29 51t34 17q6 0 9-1 26-6 90-40 40-20 68-33t56-20q18-4 27-4 78 0 126 125 3 14-14 26t-34 12q-13 0-17-8l-15-30q-11-22-24-34t-26-12q-14 0-38 11t-65 32q-8 4-37 18t-52 24-40 12q-12 2-16 2-29 0-58-20t-47-52-19-60q0-11 13-19zm367-797l-73-5q-163-11-259-28t-163-70-66-157q0-103 63-164t175-62q104 0 192 37t138 92q12-71 47-95t86-25q45 0 86 19t74 54q10 10 10 25 0 16-11 29t-26 13q-13 0-24-12-17-18-46-33t-55-16q-24 0-38 12t-14 48v312q0 122-26 202t-91 124-181 43q-102 0-181-27t-123-75-44-108q0-32 15-52t45-20q34 0 48 39t18 116q53 24 105 34t116 11q112 0 157-62t46-179v-20zm-54-338l-84-33-174-34q-69 0-110 34t-42 111q0 70 48 106t129 50 246 31l41 4V189q-54-57-138-90z" glyph-name="atilde" unicode="ã"/><glyph d="M695 1239l24-24 59-24q35 0 58 24t24 58q0 35-24 59t-58 24q-34 0-58-24t-25-59q0-34 24-58zm335 0l24-24 59-24q35 0 58 24t24 58q0 35-24 59t-58 24q-34 0-58-24t-25-59q0-34 24-58zM814 470l-73-5q-163-11-259-28t-163-70-66-157q0-103 63-164t175-62q104 0 192 37t138 92q12-71 47-95t86-25q45 0 86 19t74 54q10 10 10 25 0 16-11 29t-26 13q-13 0-24-12-17-18-46-33t-55-16q-24 0-38 12t-14 48v312q0 122-26 202t-91 124-181 43q-102 0-181-27t-123-75-44-108q0-32 15-52t45-20q34 0 48 39t18 116q53 24 105 34t116 11q112 0 157-62t46-179v-20zm-54-338l-84-33-174-34q-69 0-110 34t-42 111q0 70 48 106t129 50 246 31l41 4V189q-54-57-138-90z" glyph-name="adieresis" unicode="ä"/><glyph d="M783 1357l20-38 58-63 93-24q54 0 93 24t59 64 20 83q0 44-19 82t-58 63-92 24q-55 0-94-24t-59-64-21-84q0-43 20-81zm76 89l25 30 72 30q46 0 71-30t26-75q0-45-24-74t-70-30q-46 0-73 30t-27 74q0 45 25 75zm-45-976l-73-5q-163-11-259-28t-163-70-66-157q0-103 63-164t175-62q104 0 192 37t138 92q12-71 47-95t86-25q45 0 86 19t74 54q10 10 10 25 0 16-11 29t-26 13q-13 0-24-12-17-18-46-33t-55-16q-24 0-38 12t-14 48v312q0 122-26 202t-91 124-181 43q-102 0-181-27t-123-75-44-108q0-32 15-52t45-20q34 0 48 39t18 116q53 24 105 34t116 11q112 0 157-62t46-179v-20zm-54-338l-84-33-174-34q-69 0-110 34t-42 111q0 70 48 106t129 50 246 31l41 4V189q-54-57-138-90z" glyph-name="aring" unicode="å"/><glyph d="M934-17l61 22 111 80q16 19 16 42 0 36-36 36-18 0-38-17-38-39-61-56t-45-23-58-6q-108 0-166 84t-63 249l385 14q33 0 52 21t20 59q0 106-32 179t-88 109-123 37q-83 0-147-45t-98-126q-13 78-72 124t-146 47q-139 0-208-57t-69-153q0-32 14-52t42-20q31 0 44 44t18 126q26 11 66 20t92 10q68 0 104-29t50-80 13-126v-37q-166-9-254-25t-144-69-55-162q0-65 30-115t81-77 105-28q95 0 174 38t119 108q36-66 100-106t148-40q58 0 119 22zm25 748l34-76 40-181-375-13q5 72 21 129t61 99 130 42q89 0 123-76zM210 279l31 37 105 51 227 24q1-109 30-198-32-64-102-98T352 60q-61 0-101 39t-41 104q0 76 31 113z" glyph-name="ae" unicode="æ"/><glyph d="M958 188l10-10 10-31q0-22-18-42-52-57-147-89T632-17q-23 0-34 1l-39-309q-5-42-22-61t-40-19q-23 0-36 14t-13 40q0 17 8 41L560-13Q446 0 361 54T230 198t-47 209q0 124 60 216t164 141 228 49q158 0 251-60t93-189q0-36-15-58t-45-22q-29 0-40 36t-21 125l-5 41q-50 25-99 35t-104 10q-116 0-199-39T323 581t-44-174q0-169 93-255t252-87q92 0 154 25t124 82q17 16 41 16 15 0 25-10z" glyph-name="ccedilla" unicode="ç"/><glyph d="M664 1091l-158 136q-11 10-28 10-22 0-40-18t-18-39q0-18 19-31l79-50q185-116 261-160 4-4 12-4 13 0 23 11t10 24q0 15-10 21-150 100-308 236zM212 276l57-95L428 34l237-51q85 0 182 33t150 89q18 20 18 42 0 18-11 31t-29 13q-20 0-41-17-57-54-129-81T657 65q-154 0-249 82T308 387l629 5q35 0 56 24t21 63q0 107-46 182T840 774t-186 39q-122 0-222-49T272 623t-60-216q0-131 57-226zm600 455l55-79 62-187-618-4q18 128 108 199t237 71q156 0 211-79z" glyph-name="egrave" unicode="è"/><glyph d="M1063 1478l-19 20-43 20q-17 0-31-14l-271-276q-7-7-7-15 0-9 7-15t17-7q7 0 11 4l322 234q14 10 14 28 0 21-19 41zM212 276l57-95L428 34l237-51q85 0 182 33t150 89q18 20 18 42 0 18-11 31t-29 13q-20 0-41-17-57-54-129-81T657 65q-154 0-249 82T308 387l629 5q35 0 56 24t21 63q0 107-46 182T840 774t-186 39q-122 0-222-49T272 623t-60-216q0-131 57-226zm600 455l55-79 62-187-618-4q18 128 108 199t237 71q156 0 211-79z" glyph-name="eacute" unicode="é"/><glyph d="M662 1237q-7-7-7-17 0-12 11-20t26-9q17 0 23 9l162 209 163-209q6-9 23-9 14 0 25 8t12 21q0 10-7 17l-184 283q-4 6-13 9t-19 3q-24 0-31-12l-184-283zM212 276l57-95L428 34l237-51q85 0 182 33t150 89q18 20 18 42 0 18-11 31t-29 13q-20 0-41-17-57-54-129-81T657 65q-154 0-249 82T308 387l629 5q35 0 56 24t21 63q0 107-46 182T840 774t-186 39q-122 0-222-49T272 623t-60-216q0-131 57-226zm600 455l55-79 62-187-618-4q18 128 108 199t237 71q156 0 211-79z" glyph-name="ecircumflex" unicode="ê"/><glyph d="M619 1239l24-24 59-24q35 0 58 24t24 58q0 35-24 59t-58 24q-34 0-58-24t-25-59q0-34 24-58zm335 0l24-24 59-24q35 0 58 24t24 58q0 35-24 59t-58 24q-34 0-58-24t-25-59q0-34 24-58zM212 276l57-95L428 34l237-51q85 0 182 33t150 89q18 20 18 42 0 18-11 31t-29 13q-20 0-41-17-57-54-129-81T657 65q-154 0-249 82T308 387l629 5q35 0 56 24t21 63q0 107-46 182T840 774t-186 39q-122 0-222-49T272 623t-60-216q0-131 57-226zm600 455l55-79 62-187-618-4q18 128 108 199t237 71q156 0 211-79z" glyph-name="edieresis" unicode="ë"/><glyph d="M736 1091l-158 136q-11 10-28 10-22 0-40-18t-18-39q0-18 19-31l79-50q185-116 261-160 4-4 12-4 13 0 23 11t10 24q0 15-10 21-150 100-308 236zM1114 0l11 12 11 29q0 16-10 28t-30 13H763v697q0 15-10 23t-26 9q-8 0-11-1l-398-55q-16-2-24-13t-8-27q0-17 11-29t30-13l7 1 333 45V82H295q-20 0-31-11t-11-28q0-17 12-30t34-13h796q19 0 30 12z" glyph-name="igrave" unicode="ì"/><glyph d="M880 1478l-19 20-43 20q-17 0-31-14l-271-276q-7-7-7-15 0-9 7-15t17-7q7 0 11 4l322 234q14 10 14 28 0 21-19 41zM1114 0l11 12 11 29q0 16-10 28t-30 13H763v697q0 15-10 23t-26 9q-8 0-11-1l-398-55q-16-2-24-13t-8-27q0-17 11-29t30-13l7 1 333 45V82H295q-20 0-31-11t-11-28q0-17 12-30t34-13h796q19 0 30 12z" glyph-name="iacute" unicode="í"/><glyph d="M735 1237q-7-7-7-17 0-12 11-20t26-9q17 0 23 9l162 209 163-209q6-9 23-9 14 0 25 8t12 21q0 10-7 17l-184 283q-4 6-13 9t-19 3q-24 0-31-12l-184-283zM1114 0l11 12 11 29q0 16-10 28t-30 13H763v697q0 15-10 23t-26 9q-8 0-11-1l-398-55q-16-2-24-13t-8-27q0-17 11-29t30-13l7 1 333 45V82H295q-20 0-31-11t-11-28q0-17 12-30t34-13h796q19 0 30 12z" glyph-name="icircumflex" unicode="î"/><glyph d="M701 1239l24-24 59-24q35 0 58 24t24 58q0 35-24 59t-58 24q-34 0-58-24t-25-59q0-34 24-58zm335 0l24-24 59-24q35 0 58 24t24 58q0 35-24 59t-58 24q-34 0-58-24t-25-59q0-34 24-58zM1114 0l11 12 11 29q0 16-10 28t-30 13H763v697q0 15-10 23t-26 9q-8 0-11-1l-398-55q-16-2-24-13t-8-27q0-17 11-29t30-13l7 1 333 45V82H295q-20 0-31-11t-11-28q0-17 12-30t34-13h796q19 0 30 12z" glyph-name="idieresis" unicode="ï"/><glyph d="M839 1209v17q0 18-13 33t-31 16q-9 0-18-6l-139-97q-75 62-155 113-4 3-9 3-15 0-30-20t-16-37q0-8 6-13 8-7 23-16 68-49 108-81l-119-83q-16-12-16-30 0-17 12-30t29-14q11 0 21 7l137 94q99-91 177-204t113-246q-59 112-142 155t-170 43q-122 0-211-52T260 613t-48-219q0-124 48-217T396 34t206-51q204 0 306 124t102 346q0 179-69 342t-238 321l122 83q14 10 14 27zM308 554l77 88 223 89q83 0 153-39t111-115 42-186q0-100-36-173T771 105 602 65q-85 0-151 38T346 215t-38 176q0 163 77 251z" glyph-name="eth" unicode="ð"/><glyph d="M640 1226l13-8 28-9q16 0 22 12 14 34 29 51t34 17q6 0 9-1 26-6 90-40 40-20 68-33t56-20q18-4 27-4 78 0 126 125 3 14-14 26t-34 12q-13 0-17-8l-15-30q-11-22-24-34t-26-12q-14 0-38 11t-65 32q-8 4-37 18t-52 24-40 12q-12 2-16 2-29 0-58-20t-47-52-19-60q0-11 13-19zM894 82H748q-20 0-31-11t-11-28q0-17 12-30t34-13h345q20 0 31 12t11 30q0 16-10 28t-30 12H990v451q0 134-70 207t-211 73q-68 0-132-23t-113-62-74-89l-5 120q-2 39-39 39-4 0-18-2l-164-33q-17-4-25-15t-8-26q0-16 11-27t28-11q10 0 20 3l108 22V82H190q-20 0-31-11t-11-28q0-17 12-30t34-13h303q23 0 36 12t14 30q0 16-12 28t-36 12H394v421q0 52 41 105t114 88 165 35q89 0 134-50t46-141V82z" glyph-name="ntilde" unicode="ñ"/><glyph d="M662 1091l-158 136q-11 10-28 10-22 0-40-18t-18-39q0-18 19-31l79-50q185-116 261-160 4-4 12-4 13 0 23 11t10 24q0 15-10 21-150 100-308 236zM196 273l53-94L398 34l222-51q126 0 222 51t149 145 53 219q0 126-53 220T842 762t-222 51q-126 0-222-50T249 618t-53-220q0-125 53-219zm108 222l37 75 109 118 170 43q98 0 169-42t109-118 38-173q0-98-37-173T790 107 620 65q-98 0-169 42T342 224t-38 174q0 97 37 172z" glyph-name="ograve" unicode="ò"/><glyph d="M1061 1478l-19 20-43 20q-17 0-31-14l-271-276q-7-7-7-15 0-9 7-15t17-7q7 0 11 4l322 234q14 10 14 28 0 21-19 41zM196 273l53-94L398 34l222-51q126 0 222 51t149 145 53 219q0 126-53 220T842 762t-222 51q-126 0-222-50T249 618t-53-220q0-125 53-219zm108 222l37 75 109 118 170 43q98 0 169-42t109-118 38-173q0-98-37-173T790 107 620 65q-98 0-169 42T342 224t-38 174q0 97 37 172z" glyph-name="oacute" unicode="ó"/><glyph d="M660 1237q-7-7-7-17 0-12 11-20t26-9q17 0 23 9l162 209 163-209q6-9 23-9 14 0 25 8t12 21q0 10-7 17l-184 283q-4 6-13 9t-19 3q-24 0-31-12l-184-283zM196 273l53-94L398 34l222-51q126 0 222 51t149 145 53 219q0 126-53 220T842 762t-222 51q-126 0-222-50T249 618t-53-220q0-125 53-219zm108 222l37 75 109 118 170 43q98 0 169-42t109-118 38-173q0-98-37-173T790 107 620 65q-98 0-169 42T342 224t-38 174q0 97 37 172z" glyph-name="ocircumflex" unicode="ô"/><glyph d="M625 1226l13-8 28-9q16 0 22 12 14 34 29 51t34 17q6 0 9-1 26-6 90-40 40-20 68-33t56-20q18-4 27-4 78 0 126 125 3 14-14 26t-34 12q-13 0-17-8l-15-30q-11-22-24-34t-26-12q-14 0-38 11t-65 32q-8 4-37 18t-52 24-40 12q-12 2-16 2-29 0-58-20t-47-52-19-60q0-11 13-19zM196 273l53-94L398 34l222-51q126 0 222 51t149 145 53 219q0 126-53 220T842 762t-222 51q-126 0-222-50T249 618t-53-220q0-125 53-219zm108 222l37 75 109 118 170 43q98 0 169-42t109-118 38-173q0-98-37-173T790 107 620 65q-98 0-169 42T342 224t-38 174q0 97 37 172z" glyph-name="otilde" unicode="õ"/><glyph d="M626 1239l24-24 59-24q35 0 58 24t24 58q0 35-24 59t-58 24q-34 0-58-24t-25-59q0-34 24-58zm335 0l24-24 59-24q35 0 58 24t24 58q0 35-24 59t-58 24q-34 0-58-24t-25-59q0-34 24-58zM196 273l53-94L398 34l222-51q126 0 222 51t149 145 53 219q0 126-53 220T842 762t-222 51q-126 0-222-50T249 618t-53-220q0-125 53-219zm108 222l37 75 109 118 170 43q98 0 169-42t109-118 38-173q0-98-37-173T790 107 620 65q-98 0-169 42T342 224t-38 174q0 97 37 172z" glyph-name="odieresis" unicode="ö"/><glyph d="M653 741l23 24 24 58q0 35-23 58t-59 24q-35 0-59-24t-25-58q0-34 24-58t60-24q35 0 58 24zM301 530l12-14 34-14h547q21 0 33 13t12 34q0 20-12 33t-33 14H347q-23 0-34-13t-12-32q0-21 12-35zm351-337l24 24 24 60q0 35-23 58t-59 24q-35 0-59-24t-25-58q0-34 25-59t59-25q34 0 58 24z" glyph-name="divide" unicode="÷"/><glyph d="M933 717l55-95 56-224q0-125-53-219T842 34 620-17q-83 0-150 22l-60-126q-10-21-30-21-15 0-24 9t-9 25q0 7 3 13l59 124Q309 78 253 173t-57 225q0 126 53 220t149 144 222 51q80 0 154-22l60 126q7 17 27 17 15 0 24-9t9-25q0-6-3-12l-58-121q100-50 155-145zM304 301l37-75 106-117 289 604q-51 18-116 18-98 0-169-42T342 571t-38-173q0-97 37-172zM718 65l71 42 109 117 38 174q0 96-36 171T795 686L507 82q53-17 113-17 98 0 169 42z" glyph-name="oslash" unicode="ø"/><glyph d="M674 1132l-158 136q-11 10-28 10-22 0-40-18t-18-39q0-18 19-31l79-50q185-116 261-160 4-4 12-4 13 0 23 11t10 24q0 15-10 21-150 100-308 236zM366 768q0 14-9 24t-25 10q-4 0-12-2l-175-35q-18-4-27-14t-9-24q0-17 13-30t33-13q11 0 17 2l98 20V262q0-83 34-146t101-98 156-35q94 0 181 43t131 108l5-87q1-25 14-37t33-13h7l186 20q18 4 28 16t10 28q0 15-10 25t-30 10h-6L962 85v683q0 14-9 24t-25 10q-4 0-12-2l-174-35q-19-4-28-14t-10-25q0-17 13-30t34-13q9 0 18 3l97 20V231q-22-46-71-84T683 87 562 65q-97 0-146 53t-50 141v509z" glyph-name="ugrave" unicode="ù"/><glyph d="M1074 1519l-19 20-43 20q-17 0-31-14l-271-276q-7-7-7-15 0-9 7-15t17-7q7 0 11 4l322 234q14 10 14 28 0 21-19 41zM366 768q0 14-9 24t-25 10q-4 0-12-2l-175-35q-18-4-27-14t-9-24q0-17 13-30t33-13q11 0 17 2l98 20V262q0-83 34-146t101-98 156-35q94 0 181 43t131 108l5-87q1-25 14-37t33-13h7l186 20q18 4 28 16t10 28q0 15-10 25t-30 10h-6L962 85v683q0 14-9 24t-25 10q-4 0-12-2l-174-35q-19-4-28-14t-10-25q0-17 13-30t34-13q9 0 18 3l97 20V231q-22-46-71-84T683 87 562 65q-97 0-146 53t-50 141v509z" glyph-name="uacute" unicode="ú"/><glyph d="M673 1278q-7-7-7-17 0-12 11-20t26-9q17 0 23 9l162 209 163-209q6-9 23-9 14 0 25 8t12 21q0 10-7 17l-184 283q-4 6-13 9t-19 3q-24 0-31-12l-184-283zM366 768q0 14-9 24t-25 10q-4 0-12-2l-175-35q-18-4-27-14t-9-24q0-17 13-30t33-13q11 0 17 2l98 20V262q0-83 34-146t101-98 156-35q94 0 181 43t131 108l5-87q1-25 14-37t33-13h7l186 20q18 4 28 16t10 28q0 15-10 25t-30 10h-6L962 85v683q0 14-9 24t-25 10q-4 0-12-2l-174-35q-19-4-28-14t-10-25q0-17 13-30t34-13q9 0 18 3l97 20V231q-22-46-71-84T683 87 562 65q-97 0-146 53t-50 141v509z" glyph-name="ucircumflex" unicode="û"/><glyph d="M639 1239l24-24 59-24q35 0 58 24t24 58q0 35-24 59t-58 24q-34 0-58-24t-25-59q0-34 24-58zm335 0l24-24 59-24q35 0 58 24t24 58q0 35-24 59t-58 24q-34 0-58-24t-25-59q0-34 24-58zM366 768q0 14-9 24t-25 10q-4 0-12-2l-175-35q-18-4-27-14t-9-24q0-17 13-30t33-13q11 0 17 2l98 20V262q0-83 34-146t101-98 156-35q94 0 181 43t131 108l5-87q1-25 14-37t33-13h7l186 20q18 4 28 16t10 28q0 15-10 25t-30 10h-6L962 85v683q0 14-9 24t-25 10q-4 0-12-2l-174-35q-19-4-28-14t-10-25q0-17 13-30t34-13q9 0 18 3l97 20V231q-22-46-71-84T683 87 562 65q-97 0-146 53t-50 141v509z" glyph-name="udieresis" unicode="ü"/><glyph d="M1063 1519l-19 20-43 20q-17 0-31-14l-271-276q-7-7-7-15 0-9 7-15t17-7q7 0 11 4l322 234q14 10 14 28 0 21-19 41zM150 774v-42q0-40 41-40h93q27-59 115-258 17-38 79-178T597-2l-54-139q-11-29-37-57t-63-45-72-18q-68 0-68-48 0-24 14-38t54-14q107 0 177 73T670-83l303 775h79q42 0 42 41t-46 41H783q-40 0-40-42 0-40 39-40h89L643 95 388 692h102q39 0 39 40 0 42-41 42H196q-46 0-46-42z" glyph-name="yacute" unicode="ý"/><glyph d="M362 1181l-234-42q-16-2-24-13t-8-27q0-17 10-29t30-13l8 1 169 24V-288h-90q-19 0-29-12t-11-28q0-17 11-29t31-13h396q22 0 34 13t12 30q0 16-11 27t-31 12H409V89q60-52 126-79t158-27q115 0 200 53t132 148 46 214q0 121-45 215T897 760t-200 53q-89 0-161-34t-127-89v460q0 15-10 23t-26 9l-11-1zM512 65L409 194v392q47 67 118 106t168 39q90 0 153-45t95-120 32-168q0-91-33-167t-98-121-157-45q-175 0-278 129z" glyph-name="thorn" unicode="þ"/><glyph d="M628 1239l24-24 59-24q35 0 58 24t24 58q0 35-24 59t-58 24q-34 0-58-24t-25-59q0-34 24-58zm335 0l24-24 59-24q35 0 58 24t24 58q0 35-24 59t-58 24q-34 0-58-24t-25-59q0-34 24-58zM150 774v-42q0-40 41-40h93q27-59 115-258 17-38 79-178T597-2l-54-139q-11-29-37-57t-63-45-72-18q-68 0-68-48 0-24 14-38t54-14q107 0 177 73T670-83l303 775h79q42 0 42 41t-46 41H783q-40 0-40-42 0-40 39-40h89L643 95 388 692h102q39 0 39 40 0 42-41 42H196q-46 0-46-42z" glyph-name="ydieresis" unicode="ÿ"/><glyph d="M262 503l-12-12-12-31q0-17 12-30t33-13h675q21 0 33 13t12 30q0 18-12 30t-33 13H283q-21 0-33-12z" glyph-name="endash" unicode="–"/><glyph d="M178 533l-12-12-12-31q0-17 12-30t33-13h843q21 0 33 13t12 30q0 18-12 30t-33 13H199q-21 0-33-12z" glyph-name="emdash" unicode="—"/><glyph d="M731 915l-30 23-78 24q0 43 36 96t73 81q12 9 12 21 0 10-8 18t-20 9q-7 0-10-2-42-21-85-68t-71-107-29-115q0-57 32-89t80-32q39 0 68 25t30 70q0 46-30 69z" glyph-name="quoteleft" unicode="‘"/><glyph d="M551 1046l30-23 78-24q0-43-36-96t-73-81q-12-9-12-21 0-10 8-18t20-9q7 0 10 2 42 21 85 68t71 107 29 115q0 57-32 89t-80 32q-39 0-68-25t-30-70q0-46 30-69z" glyph-name="quoteright" unicode="’"/><glyph d="M518 39l30-23 78-24q0-41-33-82t-76-72q-12-9-12-21 0-10 8-18t20-9q7 0 10 2 43 22 86 63t71 95 28 109q0 57-32 89t-80 32q-39 0-68-25t-30-70q0-46 30-69z" glyph-name="quotesinglbase" unicode="‚"/><glyph d="M547 915l-30 23-78 24q0 43 36 96t73 81q12 9 12 21 0 10-8 18t-20 9q-7 0-10-2-42-21-85-68t-71-107-29-115q0-57 32-89t80-32q39 0 68 25t30 70q0 46-30 69zm296 0l-30 23-78 24q0 43 36 96t73 81q12 9 12 21 0 10-8 18t-20 9q-7 0-10-2-42-21-85-68t-71-107-29-115q0-57 32-89t80-32q39 0 68 25t30 70q0 46-30 69z" glyph-name="quotedblleft" unicode="“"/><glyph d="M367 1046l30-23 78-24q0-43-36-96t-73-81q-12-9-12-21 0-10 8-18t20-9q7 0 10 2 42 21 85 68t71 107 29 115q0 57-32 89t-80 32q-39 0-68-25t-30-70q0-46 30-69zm296 0l30-23 78-24q0-43-36-96t-73-81q-12-9-12-21 0-10 8-18t20-9q7 0 10 2 42 21 85 68t71 107 29 115q0 57-32 89t-80 32q-39 0-68-25t-30-70q0-46 30-69z" glyph-name="quotedblright" unicode="”"/><glyph d="M569 187q0 23-17 36t-41 14q-25 0-42-14t-15-41l32-396q1-10 7-15t17-5q10 0 17 5t8 15l34 395v6zm217 0q0 23-17 36t-41 14q-25 0-42-14t-15-41l32-396q1-10 8-15t17-5q10 0 16 5t8 15l34 395v6z" glyph-name="quotedblbase" unicode="„"/><glyph d="M861 510l-29 55-83 85-125 31q-73 0-128-29t-86-85-30-128q0-73 30-128t85-84 129-30q71 0 124 30t83 86 30 126q0 71-29 126z" glyph-name="bullet" unicode="•"/><glyph d="M901 210l12 11 12 27q0 13-10 26t-32 23L326 531l548 234q33 14 33 40 0 16-12 28t-31 12q-11 0-20-4L250 585q-21-9-32-23t-11-32q0-17 11-31t32-24l604-259q15-6 28-6 19 0 31 11z" glyph-name="guilsinglleft" unicode="‹"/><glyph d="M298 840l-12-11-12-27q0-13 10-26t32-23l557-234-548-234q-33-14-33-40 0-16 12-28t31-12q11 0 20 4l594 256q21 9 32 23t11 32q0 17-11 31t-32 24L345 834q-15 6-28 6-19 0-31-11z" glyph-name="guilsinglright" unicode="›"/></font>
</defs>
</svg>
